<?xml version="1.0" encoding="UTF-8" standalone="no" ?>
<!DOCTYPE svg PUBLIC "-//W3C//DTD SVG 1.1//EN" "http://www.w3.org/Graphics/SVG/1.1/DTD/svg11.dtd">
<svg xmlns="http://www.w3.org/2000/svg" xmlns:xlink="http://www.w3.org/1999/xlink" version="1.1" width="22" height="22" viewBox="0 0 22 22" xml:space="preserve">
<desc>Created with Fabric.js 5.2.4</desc>
<defs>
</defs>
<rect x="0" y="0" width="100%" height="100%" fill="transparent"></rect>
<g transform="matrix(0 0 0 0 0 0)" id="a7cea04e-ac7a-47a4-a5f0-d03fab67ca16"  >
</g>
<g transform="matrix(1 0 0 1 11 11)" id="86be83fd-104f-4887-832c-ed31c1e2ae75"  >
<rect style="stroke: none; stroke-width: 1; stroke-dasharray: none; stroke-linecap: butt; stroke-dashoffset: 0; stroke-linejoin: miter; stroke-miterlimit: 4; fill: rgb(255,255,255); fill-rule: nonzero; opacity: 1; visibility: hidden;" vector-effect="non-scaling-stroke"  x="-11" y="-11" rx="0" ry="0" width="22" height="22" />
</g>
<g transform="matrix(1 0 0 1 11 11)" id="79de1f5f-e848-4417-8b5f-011fe89e64de"  >
<path style="stroke: rgb(0,0,0); stroke-width: 0; stroke-dasharray: none; stroke-linecap: butt; stroke-dashoffset: 0; stroke-linejoin: miter; stroke-miterlimit: 4; fill: rgb(255,255,255); fill-rule: nonzero; opacity: 1;" vector-effect="non-scaling-stroke"  transform=" translate(-13.5, -12.5)" d="M 13 19 C 13 20.1 13.3 21.12 13.81 22 L 6 22 C 4.89 22 4 21.11 4 20 L 4 4 C 4 2.9 4.89 2 6 2 L 7 2 L 7 9 L 9.5 7.5 L 12 9 L 12 2 L 18 2 C 19.1 2 20 2.89 20 4 L 20 13.09 C 19.67 13.04 19.34 13 19 13 C 15.69 13 13 15.69 13 19 M 20 18 L 20 15 L 18 15 L 18 18 L 15 18 L 15 20 L 18 20 L 18 23 L 20 23 L 20 20 L 23 20 L 23 18 L 20 18 Z" stroke-linecap="round" />
</g>
</svg>