<?xml version="1.0" encoding="UTF-8" standalone="no" ?>
<!DOCTYPE svg PUBLIC "-//W3C//DTD SVG 1.1//EN" "http://www.w3.org/Graphics/SVG/1.1/DTD/svg11.dtd">
<svg xmlns="http://www.w3.org/2000/svg" xmlns:xlink="http://www.w3.org/1999/xlink" version="1.1" width="22" height="22" viewBox="0 0 22 22" xml:space="preserve">
<desc>Created with Fabric.js 5.2.4</desc>
<defs>
</defs>
<g transform="matrix(0 0 0 0 0 0)" id="a7cea04e-ac7a-47a4-a5f0-d03fab67ca16"  >
</g>
<g transform="matrix(1 0 0 1 11 11)" id="86be83fd-104f-4887-832c-ed31c1e2ae75"  >
<rect style="stroke: none; stroke-width: 1; stroke-dasharray: none; stroke-linecap: butt; stroke-dashoffset: 0; stroke-linejoin: miter; stroke-miterlimit: 4; fill: rgb(255,255,255); fill-rule: nonzero; opacity: 1; visibility: hidden;" vector-effect="non-scaling-stroke"  x="-11" y="-11" rx="0" ry="0" width="22" height="22" />
</g>
<g transform="matrix(1 0 0 1 11 11)" id="a7318fd1-8c32-460e-839f-acea38f841cf"  >
<path style="stroke: rgb(0,0,0); stroke-width: 0; stroke-dasharray: none; stroke-linecap: butt; stroke-dashoffset: 0; stroke-linejoin: miter; stroke-miterlimit: 4; fill: rgb(255,255,255); fill-rule: nonzero; opacity: 1;" vector-effect="non-scaling-stroke"  transform=" translate(-12, -11)" d="M 19 19 L 5 19 L 5 8 L 19 8 M 16 1 L 16 3 L 8 3 L 8 1 L 6 1 L 6 3 L 5 3 C 3.89 3 3 3.89 3 5 L 3 19 C 3 20.104569499661586 3.8954305003384135 21 5 21 L 19 21 C 20.104569499661586 21 21 20.104569499661586 21 19 L 21 5 C 21 3.89 20.1 3 19 3 L 18 3 L 18 1" stroke-linecap="round" />
</g>
</svg>