<?xml version="1.0" encoding="UTF-8"?>
<svg version="1.1" xmlns="http://www.w3.org/2000/svg" width="88" height="88">
<path d="M0 0 C1.16816254 -0.01283524 2.33632507 -0.02567047 3.53988647 -0.03889465 C4.80756866 -0.04628159 6.07525085 -0.05366852 7.38134766 -0.0612793 C8.67859772 -0.06935104 9.97584778 -0.07742279 11.31240845 -0.08573914 C14.06129832 -0.10076451 16.81016235 -0.11060362 19.55908203 -0.11816406 C23.07886457 -0.12923224 26.59801552 -0.16363706 30.11757469 -0.20333576 C33.4763074 -0.23577483 36.83497036 -0.24027815 40.19384766 -0.2487793 C42.08929825 -0.27504143 42.08929825 -0.27504143 44.02304077 -0.30183411 C45.78474106 -0.29744576 45.78474106 -0.29744576 47.58203125 -0.29296875 C49.13185196 -0.30176811 49.13185196 -0.30176811 50.71298218 -0.31074524 C54.21326903 0.31983666 55.36311486 1.29788423 57.42041016 4.17700195 C57.92834473 6.87097168 57.92834473 6.87097168 57.93798828 9.98364258 C57.95059692 11.15165405 57.96320557 12.31966553 57.97619629 13.52307129 C57.96809937 14.78043091 57.96000244 16.03779053 57.95166016 17.33325195 C57.95740051 19.2748822 57.95740051 19.2748822 57.96325684 21.2557373 C57.96914703 23.99287041 57.96060554 26.72948054 57.94189453 29.46655273 C57.91910385 32.97072222 57.9322297 36.47366629 57.95618439 39.97779083 C57.9741347 43.32554216 57.96155776 46.67296583 57.95166016 50.02075195 C57.95975708 51.27811157 57.967854 52.53547119 57.97619629 53.83093262 C57.96358765 54.99894409 57.950979 56.16695557 57.93798828 57.37036133 C57.93480591 58.39754272 57.93162354 59.42472412 57.92834473 60.48303223 C57.28948592 63.87139439 56.06045887 65.03283826 53.42041016 67.17700195 C50.87677564 68.44881921 49.07156042 68.31782872 46.22387695 68.33813477 C45.13902512 68.34774231 44.05417328 68.35734985 42.93644714 68.36724854 C41.75939713 68.37149841 40.58234711 68.37574829 39.36962891 68.38012695 C37.56048759 68.38867706 37.56048759 68.38867706 35.71479797 68.3973999 C33.1584257 68.40686041 30.60204118 68.41338804 28.0456543 68.41723633 C24.13454888 68.42693589 20.22397013 68.45794786 16.31298828 68.48950195 C13.83187162 68.49603239 11.35075119 68.5012827 8.86962891 68.50512695 C7.69865158 68.51747375 6.52767426 68.52982056 5.32121277 68.5425415 C4.22690445 68.53954041 3.13259613 68.53653931 2.00512695 68.53344727 C1.04519333 68.5370929 0.0852597 68.54073853 -0.90376282 68.54449463 C-4.15086865 68.09854368 -5.97578003 67.15360498 -8.57958984 65.17700195 C-10.73442086 62.10191739 -10.83637391 59.45094232 -10.85424805 55.75341797 C-10.86378006 54.66871719 -10.87331207 53.58401642 -10.88313293 52.46644592 C-10.88222153 51.29971848 -10.88131012 50.13299103 -10.88037109 48.9309082 C-10.88465622 47.72764389 -10.88894135 46.52437958 -10.89335632 45.28465271 C-10.89909882 42.7402306 -10.89960049 40.19579208 -10.89526367 37.65136719 C-10.8921048 33.75793456 -10.91556142 29.86526244 -10.94091797 25.97192383 C-10.94319105 23.49991958 -10.94389442 21.02791329 -10.94287109 18.5559082 C-10.95668571 16.80885338 -10.95668571 16.80885338 -10.97077942 15.02650452 C-10.96455063 13.93865158 -10.95832184 12.85079865 -10.9519043 11.72998047 C-10.95253372 10.77607925 -10.95316315 9.82217804 -10.95381165 8.83937073 C-10.50652683 5.65720146 -9.45215281 3.76704387 -7.57958984 1.17700195 C-4.94583565 -0.13987515 -2.94952144 0.02814566 0 0 Z M28.42041016 9.17700195 C28.42041016 19.73700195 28.42041016 30.29700195 28.42041016 41.17700195 C32.87541016 38.70200195 32.87541016 38.70200195 37.42041016 36.17700195 C40.10791016 36.67700195 40.10791016 36.67700195 42.42041016 38.17700195 C44.40041016 39.16700195 46.38041016 40.15700195 48.42041016 41.17700195 C48.42041016 30.61700195 48.42041016 20.05700195 48.42041016 9.17700195 C41.82041016 9.17700195 35.22041016 9.17700195 28.42041016 9.17700195 Z " fill="#FFFFFF" transform="translate(28.57958984375,1.822998046875)"/>
<path d="M0 0 C2.97 0 5.94 0 9 0 C9 19.47 9 38.94 9 59 C28.47 59 47.94 59 68 59 C68 61.97 68 64.94 68 68 C59.72457704 68.09270357 51.44937122 68.16376616 43.17355728 68.20724869 C39.33068748 68.22811884 35.48817307 68.25642506 31.64550781 68.30175781 C27.93668885 68.34523745 24.22821158 68.36914142 20.51915741 68.37950897 C19.10453665 68.38689667 17.68993448 68.40132343 16.27545929 68.42292023 C14.29352577 68.45197615 12.311248 68.45363408 10.32910156 68.45410156 C9.20103088 68.46298401 8.07296021 68.47186646 6.91070557 68.48101807 C4 68 4 68 1.6328125 66.3671875 C-0.49391728 63.2839381 -0.48348171 61.4021772 -0.45410156 57.67089844 C-0.45379944 56.38987244 -0.45349731 55.10884644 -0.45318604 53.78900146 C-0.43276095 52.39578629 -0.41189699 51.0025775 -0.390625 49.609375 C-0.38316131 48.18020418 -0.37746898 46.7510231 -0.37347412 45.32183838 C-0.3582275 41.56672738 -0.31895516 37.81223875 -0.2746582 34.05737305 C-0.23368387 30.22323017 -0.21545856 26.38898638 -0.1953125 22.5546875 C-0.15245903 15.0361751 -0.08422067 7.51817488 0 0 Z " fill="#FFFFFF" transform="translate(2,18)"/>
</svg>
