<?xml version="1.0" encoding="UTF-8"?>
<svg version="1.1" xmlns="http://www.w3.org/2000/svg" width="79" height="79">
<path d="M0 0 C6.86025395 4.88395563 11.9561238 11.42686249 14.546875 19.4921875 C15.84369792 33.09374887 15.84369792 33.09374887 12.984375 38.5546875 C8.20857247 44.31014183 4.12812779 48.14712652 -3.453125 49.4921875 C-6.85608671 49.72856089 -10.25103632 49.92916708 -13.66015625 50.05078125 C-14.58183594 50.19644531 -15.50351562 50.34210937 -16.453125 50.4921875 C-18.76855707 53.26206826 -18.76855707 53.26206826 -18.140625 56.1171875 C-17.6789736 58.42720715 -17.6789736 58.42720715 -16.453125 59.4921875 C-15.98489758 65.81325773 -15.98489758 65.81325773 -17.625 68.19140625 C-21.5683111 70.99722377 -26.85852977 69.9659707 -31.453125 69.4921875 C-42.16468739 67.31504067 -49.7531431 60.64924419 -55.953125 51.8671875 C-61.93948251 42.78323803 -61.76105733 30.68142627 -59.87109375 20.29296875 C-56.76053904 10.33635297 -49.31808256 3.2690944 -40.7890625 -2.3515625 C-28.32228572 -8.52240853 -11.64364973 -7.1567656 0 0 Z M-37.140625 4.8046875 C-38.66402664 6.57019222 -38.66402664 6.57019222 -39.453125 9.4921875 C-38.51508718 12.2780886 -38.51508718 12.2780886 -36.453125 14.4921875 C-33.453125 15.2421875 -33.453125 15.2421875 -30.453125 14.4921875 C-28.3745642 12.91523118 -28.3745642 12.91523118 -27.453125 10.4921875 C-27.44677254 7.85681242 -27.44677254 7.85681242 -28.453125 5.4921875 C-31.63546753 3.37062582 -33.84204031 2.23912163 -37.140625 4.8046875 Z M-16.890625 5.1171875 C-18.71639178 7.3848177 -18.71639178 7.3848177 -18.328125 10.1171875 C-17.58844587 12.63623875 -17.58844587 12.63623875 -15.453125 14.4921875 C-12.49566008 15.07564226 -12.49566008 15.07564226 -9.453125 14.4921875 C-7.28292208 12.40296994 -7.28292208 12.40296994 -6.453125 9.4921875 C-6.69763741 6.67249902 -6.69763741 6.67249902 -8.453125 4.4921875 C-12.1145 3.13907065 -13.60283807 2.92532955 -16.890625 5.1171875 Z M-50.453125 21.5546875 C-51.96951853 24.49269996 -51.37606217 26.39375558 -50.453125 29.4921875 C-47.69416865 31.78856529 -47.69416865 31.78856529 -44.890625 31.2421875 C-42.30311933 30.65410698 -42.30311933 30.65410698 -40.453125 28.4921875 C-40.77639053 24.89539684 -40.77639053 24.89539684 -41.453125 21.4921875 C-46.06946479 20.35044431 -46.06946479 20.35044431 -50.453125 21.5546875 Z M-4.265625 21.6796875 C-5.87838284 24.14126526 -5.8865264 25.60284486 -5.453125 28.4921875 C-4.453125 30.4921875 -4.453125 30.4921875 -2.453125 31.4921875 C0.63020833 31.4921875 0.63020833 31.4921875 3.546875 30.4921875 C5.84325279 27.73323115 5.84325279 27.73323115 5.296875 24.9296875 C4.70879448 22.34218183 4.70879448 22.34218183 2.546875 20.4921875 C-0.29915094 20.12731238 -1.8395556 20.09019375 -4.265625 21.6796875 Z " fill="#FFFFFF" transform="translate(62.453125,7.5078125)"/>
</svg>
