<?xml version="1.0" encoding="UTF-8"?>
<svg version="1.1" xmlns="http://www.w3.org/2000/svg" width="24" height="24">
<path d="M0 0 C5.94 0 11.88 0 18 0 C18 3.96 18 7.92 18 12 C12.06 12 6.12 12 0 12 C0 8.04 0 4.08 0 0 Z M4 2 C4 2.66 4 3.32 4 4 C3.34 4 2.68 4 2 4 C2 5.32 2 6.64 2 8 C2.66 8 3.32 8 4 8 C4 8.66 4 9.32 4 10 C7.3 10 10.6 10 14 10 C14 9.34 14 8.68 14 8 C14.66 8 15.32 8 16 8 C16 6.68 16 5.36 16 4 C15.34 4 14.68 4 14 4 C14 3.34 14 2.68 14 2 C10.7 2 7.4 2 4 2 Z " fill="#FAFAFA" transform="translate(3,6)"/>
<path d="M0 0 C1.98 0 3.96 0 6 0 C6 1.98 6 3.96 6 6 C4.02 6 2.04 6 0 6 C0 4.02 0 2.04 0 0 Z " fill="#FEFEFE" transform="translate(9,9)"/>
</svg>
