<?xml version="1.0" encoding="UTF-8"?>
<svg version="1.1" xmlns="http://www.w3.org/2000/svg" width="24" height="24">
<path d="M0 0 C3.96 0 7.92 0 12 0 C12 4.62 12 9.24 12 14 C8.04 14 4.08 14 0 14 C0 9.38 0 4.76 0 0 Z " fill="#FEFEFE" transform="translate(6,7)"/>
<path d="M0 0 C0.680625 -0.00257812 1.36125 -0.00515625 2.0625 -0.0078125 C4 0.125 4 0.125 7 1.125 C7 1.785 7 2.445 7 3.125 C2.38 3.125 -2.24 3.125 -7 3.125 C-7 2.465 -7 1.805 -7 1.125 C-4.32356043 0.23285348 -2.74615622 -0.01040211 0 0 Z " fill="#FEFEFE" transform="translate(12,2.875)"/>
</svg>
