<?xml version="1.0" encoding="UTF-8" standalone="no" ?>
<!DOCTYPE svg PUBLIC "-//W3C//DTD SVG 1.1//EN" "http://www.w3.org/Graphics/SVG/1.1/DTD/svg11.dtd">
<svg xmlns="http://www.w3.org/2000/svg" xmlns:xlink="http://www.w3.org/1999/xlink" version="1.1" width="22" height="22" viewBox="0 0 22 22" xml:space="preserve">
<desc>Created with Fabric.js 5.2.4</desc>
<defs>
</defs>
<rect x="0" y="0" width="100%" height="100%" fill="transparent"></rect>
<g transform="matrix(1 0 0 1 11 11)" id="14402fb2-810c-4d0c-a75a-a20b5ded12cd"  >
<rect style="stroke: none; stroke-width: 1; stroke-dasharray: none; stroke-linecap: butt; stroke-dashoffset: 0; stroke-linejoin: miter; stroke-miterlimit: 4; fill: rgb(255,255,255); fill-rule: nonzero; opacity: 1; visibility: hidden;" vector-effect="non-scaling-stroke"  x="-11" y="-11" rx="0" ry="0" width="22" height="22" />
</g>
<g transform="matrix(Infinity NaN NaN Infinity 0 0)" id="46143649-b29a-48c3-be8d-7f1c3539c7bd"  >
</g>
<g transform="matrix(0.02 0 0 0.02 38.4 41.1)"  >
<path style="stroke: rgb(0,0,0); stroke-width: 0; stroke-dasharray: none; stroke-linecap: butt; stroke-dashoffset: 0; stroke-linejoin: miter; stroke-miterlimit: 4; fill: rgb(255,255,255); fill-rule: nonzero; opacity: 1;" vector-effect="non-scaling-stroke"  transform=" translate(-12, -12)" d="M 13 9 L 11 9 L 11 7 L 13 7 M 13 17 L 11 17 L 11 11 L 13 11 M 12 2 C 6.477152501692067 2 2 6.477152501692067 2 12 C 2 17.522847498307932 6.477152501692067 22 12 22 C 17.522847498307932 22 22 17.522847498307932 22 12 C 22 6.477152501692067 17.522847498307932 2 12 2 Z" stroke-linecap="round" />
</g>
<g transform="matrix(0 0 0 0 5.4 2.7)"  >
<g style=""   >
</g>
</g>
<g transform="matrix(0 0 0 0 5.4 2.7)"  >
<g style=""   >
</g>
</g>
<g transform="matrix(1 0 0 1 11 11)" id="06b65463-c9af-4010-b7b1-e3403842dee1"  >
<path style="stroke: rgb(0,0,0); stroke-width: 0; stroke-dasharray: none; stroke-linecap: butt; stroke-dashoffset: 0; stroke-linejoin: miter; stroke-miterlimit: 4; fill: rgb(255,255,255); fill-rule: nonzero; opacity: 1;" vector-effect="non-scaling-stroke"  transform=" translate(-12, -12)" d="M 12 1 L 8 5 L 11 5 L 11 14 L 13 14 L 13 5 L 16 5 M 18 23 L 6 23 C 4.89 23 4 22.1 4 21 L 4 9 C 4 7.8954305003384135 4.8954305003384135 7 6 7 L 9 7 L 9 9 L 6 9 L 6 21 L 18 21 L 18 9 L 15 9 L 15 7 L 18 7 C 19.104569499661586 7 20 7.895430500338413 20 9 L 20 21 C 20 22.104569499661586 19.104569499661586 23 18 23 Z" stroke-linecap="round" />
</g>
</svg>