<?xml version="1.0" encoding="UTF-8"?>
<svg version="1.1" xmlns="http://www.w3.org/2000/svg" width="88" height="87">
<path d="M0 0 C1.49718569 2.66889623 1.74385873 4.22311471 2.02734375 7.22265625 C2.10718506 8.03484619 2.18702637 8.84703613 2.26928711 9.68383789 C2.35255249 10.61377563 2.35255249 10.61377563 2.4375 11.5625 C3.01717529 11.66272461 3.59685059 11.76294922 4.1940918 11.86621094 C6.84072318 12.3328434 9.48261352 12.82242417 12.125 13.3125 C13.03701172 13.46976563 13.94902344 13.62703125 14.88867188 13.7890625 C24.48011505 15.60271721 24.48011505 15.60271721 27.4375 19.5625 C29.08923007 27.35930159 26.38455888 35.91722134 24.66650391 43.54931641 C24.18754679 45.68729112 23.7314922 47.82929114 23.27734375 49.97265625 C20.98757596 60.50402813 18.27529251 70.76173102 9.01171875 77.265625 C0.5887061 82.14390567 -7.10294643 82.87198365 -16.5625 81.5625 C-22.93670404 79.54181161 -27.58988261 75.88651512 -32.5625 71.5625 C-33.88550863 70.75369715 -35.21960292 69.96283303 -36.5625 69.1875 C-45.33843186 63.77790842 -48.82678656 56.00703292 -51.44433594 46.28833008 C-52.28687342 42.72257319 -53.06156009 39.14862121 -53.8125 35.5625 C-54.080625 34.3559375 -54.34875 33.149375 -54.625 31.90625 C-58.28433931 14.72975937 -58.28433931 14.72975937 -55.38085938 9.38891602 C-53.04859043 7.04631344 -51.32785792 6.66023755 -48.109375 5.96484375 C-47.02205078 5.7220166 -45.93472656 5.47918945 -44.81445312 5.22900391 C-43.65880859 4.98843262 -42.50316406 4.74786133 -41.3125 4.5 C-40.13623047 4.24395996 -38.95996094 3.98791992 -37.74804688 3.72412109 C-35.41107867 3.21842178 -33.07254907 2.71987752 -30.73242188 2.22900391 C-28.10302185 1.67614946 -25.48048131 1.10223304 -22.859375 0.51171875 C-5.72010957 -3.20884196 -5.72010957 -3.20884196 0 0 Z M-9.5625 7.5625 C-9.5625 8.2225 -9.5625 8.8825 -9.5625 9.5625 C-8.9025 9.5625 -8.2425 9.5625 -7.5625 9.5625 C-7.5625 8.9025 -7.5625 8.2425 -7.5625 7.5625 C-8.2225 7.5625 -8.8825 7.5625 -9.5625 7.5625 Z M-40.75 14.0625 C-42.02230469 14.3409375 -43.29460938 14.619375 -44.60546875 14.90625 C-45.58128906 15.1228125 -46.55710937 15.339375 -47.5625 15.5625 C-46.79669174 19.480166 -46.02390149 23.3964254 -45.25 27.3125 C-45.03666016 28.40433594 -44.82332031 29.49617188 -44.60351562 30.62109375 C-43.14151328 37.99656828 -41.45571185 45.28585264 -39.5625 52.5625 C-37.94212637 49.47181006 -37.14423746 46.98505918 -36.75 43.5 C-36.64042969 42.64277344 -36.53085937 41.78554688 -36.41796875 40.90234375 C-36.33829958 38.47457314 -36.33829958 38.47457314 -38.05078125 36.75390625 C-38.54964844 36.36074219 -39.04851563 35.96757813 -39.5625 35.5625 C-38.8125 33.125 -38.8125 33.125 -37.5625 30.5625 C-35.484375 29.90234375 -35.484375 29.90234375 -33.5625 29.5625 C-33.05872232 27.29250175 -32.55959981 25.02146997 -32.0625 22.75 C-31.64484375 20.85314453 -31.64484375 20.85314453 -31.21875 18.91796875 C-30.46653008 15.64163666 -30.46653008 15.64163666 -30.5625 12.5625 C-34.13758924 12.5625 -37.25835047 13.29369643 -40.75 14.0625 Z M-21.5625 16.5625 C-22.92520213 21.88879767 -24.25576787 27.22220204 -25.5625 32.5625 C-25.87058594 33.81417969 -26.17867187 35.06585938 -26.49609375 36.35546875 C-29.77742604 50.40520025 -29.77742604 50.40520025 -25.828125 63.84375 C-22.39777256 68.50225331 -18.26676064 71.33216927 -12.5625 72.5625 C-6.01452253 73.35508573 -0.99304909 72.38883875 4.4375 68.5625 C12.23170125 60.94150323 13.49717077 50.4536193 15.625 40.1875 C15.89763672 38.90488281 16.17027344 37.62226562 16.45117188 36.30078125 C17.85130035 30.48133574 17.85130035 30.48133574 18.4375 24.5625 C13.3850014 23.41773382 8.33128638 22.27856119 3.27636719 21.14453125 C1.55727195 20.75804284 -0.16148218 20.3700339 -1.87988281 19.98046875 C-4.35132949 19.42046465 -6.82395524 18.86595791 -9.296875 18.3125 C-10.06368591 18.13750977 -10.83049683 17.96251953 -11.62054443 17.78222656 C-15.04925738 17.01997083 -18.02997897 16.5625 -21.5625 16.5625 Z " fill="#FFFFFF" transform="translate(58.5625,3.4375)"/>
<path d="M0 0 C7.8246759 0.67454103 15.34556614 2.26876958 23 4 C23 8 23 8 21.5625 9.6875 C17.79557666 11.61689976 14.21866472 12.1245092 10 12 C5.80991796 10.52571188 3.1824013 8.9053497 1 5 C0.3125 2.25 0.3125 2.25 0 0 Z " fill="#FFFFFF" transform="translate(37,57)"/>
<path d="M0 0 C2.875 2.5 2.875 2.5 5 5 C4.34 6.32 3.68 7.64 3 9 C-5.24444444 9.62222222 -5.24444444 9.62222222 -8.125 7.25 C-9 5 -9 5 -8.8125 2.8125 C-7.12394151 -0.95428433 -3.64385986 -0.4286894 0 0 Z " fill="#FFFFFF" transform="translate(65,41)"/>
<path d="M0 0 C2.642241 0.0426933 3.8681951 0.10214263 6.1875 1.4375 C7.5195522 4.01280093 6.97852401 5.54717396 6.125 8.25 C5.125 9.25 5.125 9.25 1.25 9.5 C-1.392241 9.4573067 -2.6181951 9.39785737 -4.9375 8.0625 C-6.2695522 5.48719907 -5.72852401 3.95282604 -4.875 1.25 C-3.875 0.25 -3.875 0.25 0 0 Z " fill="#FFFFFF" transform="translate(41.875,36.75)"/>
</svg>
