<?xml version="1.0" encoding="UTF-8" standalone="no" ?>
<!DOCTYPE svg PUBLIC "-//W3C//DTD SVG 1.1//EN" "http://www.w3.org/Graphics/SVG/1.1/DTD/svg11.dtd">
<svg xmlns="http://www.w3.org/2000/svg" xmlns:xlink="http://www.w3.org/1999/xlink" version="1.1" width="22" height="22" viewBox="0 0 22 22" xml:space="preserve">
<desc>Created with Fabric.js 5.2.4</desc>
<defs>
</defs>
<rect x="0" y="0" width="100%" height="100%" fill="transparent"></rect>
<g transform="matrix(1 0 0 1 11 11)" id="85f12522-5024-48f0-8665-7747b9d1ff23"  >
<rect style="stroke: none; stroke-width: 1; stroke-dasharray: none; stroke-linecap: butt; stroke-dashoffset: 0; stroke-linejoin: miter; stroke-miterlimit: 4; fill: rgb(255,255,255); fill-rule: nonzero; opacity: 1; visibility: hidden;" vector-effect="non-scaling-stroke"  x="-11" y="-11" rx="0" ry="0" width="22" height="22" />
</g>
<g transform="matrix(0 0 0 0 0 0)" id="28447f04-ae00-4cca-8b9a-da9aab23f328"  >
</g>
<g transform="matrix(1 0 0 1 11 11)" id="0ab3f21a-b5ba-4760-96c4-f5da16ac220f"  >
<path style="stroke: rgb(0,0,0); stroke-width: 0; stroke-dasharray: none; stroke-linecap: butt; stroke-dashoffset: 0; stroke-linejoin: miter; stroke-miterlimit: 4; fill: rgb(255,255,255); fill-rule: nonzero; opacity: 1;" vector-effect="non-scaling-stroke"  transform=" translate(-12, -11.95)" d="M 12 21.1 L 10.5 22.4 C 3.9 16.5 0.5 13.4 0.5 9.6 C 0.5 8.4 0.9 7.3 1.5 6.4 C 1.5 6.6 1.5 6.8 1.5 7 C 1.5 11.7 5.4 15.2 12 21.1 M 13.6 17 C 18.3 12.7 21.5 9.9 21.6 7 C 21.6 5 20.1 3.5 18.1 3.5 C 16.5 3.5 15 4.5 14.5 5.9 L 12.6 5.9 C 12 4.5 10.5 3.5 9 3.5 C 7 3.5 5.5 5 5.5 7 C 5.5 9.9 8.6 12.7 13.4 17 L 13.5 17.1 M 18 1.5 C 21.1 1.5 23.5 3.9 23.5 7 C 23.5 10.7 20.1 13.8 13.5 19.8 C 6.9 13.9 3.5 10.8 3.5 7 C 3.5 3.9 5.9 1.5 9 1.5 C 10.7 1.5 12.4 2.3 13.5 3.6 C 14.6 2.3 16.3 1.5 18 1.5 Z" stroke-linecap="round" />
</g>
</svg>