<?xml version="1.0" encoding="UTF-8"?>
<svg version="1.1" xmlns="http://www.w3.org/2000/svg" width="88" height="88">
<path d="M0 0 C9.04406096 6.47619365 14.86670645 15.32667761 17.25 26.25 C18.1300124 40.80627072 16.78682748 52.56683316 7.25 64.25 C0.23900936 71.89275023 -9.29330505 76.85965472 -19.69140625 77.48828125 C-33.85195306 77.82905538 -44.95079051 75.32185548 -55.6875 65.47265625 C-65.17487711 55.47410581 -67.24283755 44.07335004 -67.02734375 30.8125 C-66.57110108 19.75372241 -60.99874282 10.03050443 -53.0625 2.5 C-37.84382329 -10.1089229 -16.35530973 -10.0268733 0 0 Z M-25.75 4.25 C-26.75484204 6.20585325 -27.75373805 8.16476237 -28.75 10.125 C-29.306875 11.21554688 -29.86375 12.30609375 -30.4375 13.4296875 C-31.89064094 16.03375082 -31.89064094 16.03375082 -31.75 18.25 C-27.13 18.25 -22.51 18.25 -17.75 18.25 C-19.9586965 10.88108111 -19.9586965 10.88108111 -23.75 4.25 C-24.41 4.25 -25.07 4.25 -25.75 4.25 Z M-11.75 5.25 C-11.27140759 6.85433809 -10.79210442 8.45846416 -10.3125 10.0625 C-10.04566406 10.95582031 -9.77882812 11.84914063 -9.50390625 12.76953125 C-8.94612127 14.60473055 -8.35655425 16.43033726 -7.75 18.25 C-4.12 18.25 -0.49 18.25 3.25 18.25 C-0.21685675 12.18300068 -5.01487507 7.49504164 -11.75 5.25 Z M-38.75 5.25 C-44.35399884 8.69297968 -48.88238047 11.88523743 -52.75 17.25 C-52.75 17.58 -52.75 17.91 -52.75 18.25 C-49.12 18.25 -45.49 18.25 -41.75 18.25 C-41.05329584 16.46189234 -40.36788811 14.66937948 -39.6875 12.875 C-39.11322266 11.37839844 -39.11322266 11.37839844 -38.52734375 9.8515625 C-37.44092519 7.29768169 -37.44092519 7.29768169 -38.75 5.25 Z M-56.75 27.25 C-57.73275588 30.19826763 -57.88414725 32.17652504 -57.875 35.25 C-57.87757812 36.11625 -57.88015625 36.9825 -57.8828125 37.875 C-57.84594205 40.40011695 -57.84594205 40.40011695 -56.75 43.25 C-52.46 43.25 -48.17 43.25 -43.75 43.25 C-43.75 37.97 -43.75 32.69 -43.75 27.25 C-48.04 27.25 -52.33 27.25 -56.75 27.25 Z M-34.75 28.25 C-34.84909302 30.58160055 -34.87970504 32.91629942 -34.875 35.25 C-34.87757812 36.52875 -34.88015625 37.8075 -34.8828125 39.125 C-35.10860893 42.11687244 -35.10860893 42.11687244 -33.75 43.25 C-32.40732587 43.33631874 -31.06025678 43.35706473 -29.71484375 43.34765625 C-28.90595703 43.34443359 -28.09707031 43.34121094 -27.26367188 43.33789062 C-25.9884668 43.32532227 -25.9884668 43.32532227 -24.6875 43.3125 C-23.83349609 43.30798828 -22.97949219 43.30347656 -22.09960938 43.29882812 C-19.98304337 43.28700373 -17.86651315 43.26906769 -15.75 43.25 C-14.38461062 40.51922124 -14.61768174 38.29439633 -14.625 35.25 C-14.62242188 34.1775 -14.61984375 33.105 -14.6171875 32 C-14.5627659 29.28817948 -14.5627659 29.28817948 -15.75 27.25 C-18.72922593 27.22316013 -21.70821295 27.20323963 -24.6875 27.1875 C-25.53763672 27.17912109 -26.38777344 27.17074219 -27.26367188 27.16210938 C-28.07255859 27.15888672 -28.88144531 27.15566406 -29.71484375 27.15234375 C-30.4637085 27.14710693 -31.21257324 27.14187012 -31.98413086 27.13647461 C-33.77667739 27.05658248 -33.77667739 27.05658248 -34.75 28.25 Z M-5.75 27.25 C-5.75 32.53 -5.75 37.81 -5.75 43.25 C-1.46 43.25 2.83 43.25 7.25 43.25 C8.23275588 40.30173237 8.38414725 38.32347496 8.375 35.25 C8.37757812 34.38375 8.38015625 33.5175 8.3828125 32.625 C8.34594205 30.09988305 8.34594205 30.09988305 7.25 27.25 C2.96 27.25 -1.33 27.25 -5.75 27.25 Z M-52.75 52.25 C-49.28314325 58.31699932 -44.48512493 63.00495836 -37.75 65.25 C-38.22859241 63.64566191 -38.70789558 62.04153584 -39.1875 60.4375 C-39.45433594 59.54417969 -39.72117187 58.65085937 -39.99609375 57.73046875 C-40.55387873 55.89526945 -41.14344575 54.06966274 -41.75 52.25 C-45.38 52.25 -49.01 52.25 -52.75 52.25 Z M-31.75 52.25 C-30.16384826 57.31057937 -28.746935 61.82595309 -25.75 66.25 C-22.5680635 65.56029714 -22.5680635 65.56029714 -21.36328125 62.81640625 C-20.93402344 61.82511719 -20.50476562 60.83382812 -20.0625 59.8125 C-19.62550781 58.82378906 -19.18851563 57.83507812 -18.73828125 56.81640625 C-17.63021341 54.39728639 -17.63021341 54.39728639 -17.75 52.25 C-22.37 52.25 -26.99 52.25 -31.75 52.25 Z M-7.75 52.25 C-8.44670416 54.03810766 -9.13211189 55.83062052 -9.8125 57.625 C-10.19535156 58.62273437 -10.57820313 59.62046875 -10.97265625 60.6484375 C-12.05907481 63.20231831 -12.05907481 63.20231831 -10.75 65.25 C-5.14600116 61.80702032 -0.61761953 58.61476257 3.25 53.25 C3.25 52.92 3.25 52.59 3.25 52.25 C-0.38 52.25 -4.01 52.25 -7.75 52.25 Z " fill="#FFFFFF" transform="translate(68.75,8.75)"/>
</svg>
