<?xml version="1.0" encoding="UTF-8"?>
<svg version="1.1" xmlns="http://www.w3.org/2000/svg" width="71" height="71">
<path d="M0 0 C1.91796875 1.59765625 1.91796875 1.59765625 4.91796875 5.59765625 C4.91796875 9.88765625 4.91796875 14.17765625 4.91796875 18.59765625 C-17.19203125 18.59765625 -39.30203125 18.59765625 -62.08203125 18.59765625 C-62.08203125 5.59765625 -62.08203125 5.59765625 -58.08203125 0.59765625 C-43.29320779 -11.55489868 -15.39950998 -9.93944276 0 0 Z " fill="#FFFFFF" transform="translate(64.08203125,50.40234375)"/>
<path d="M0 0 C4.29479791 2.24521973 6.78607864 5.00221622 8.86328125 9.31640625 C10.03817284 14.21854011 10.16590381 18.18157164 8.86328125 23.06640625 C5.89554605 27.88897596 2.29143751 31.50702083 -3.13671875 33.31640625 C-8.82657586 33.87997305 -13.30580278 33.64437058 -18.13671875 30.31640625 C-22.20799014 26.87589522 -24.44335979 23.71921413 -25.19921875 18.37890625 C-25.41904993 12.81548646 -24.54175315 7.95080361 -20.703125 3.74609375 C-14.91890771 -1.30247496 -7.3130184 -2.33963111 0 0 Z " fill="#FFFFFF" transform="translate(43.13671875,2.68359375)"/>
</svg>
