<?xml version="1.0" encoding="UTF-8"?>
<svg version="1.1" xmlns="http://www.w3.org/2000/svg" width="24" height="24">
<path d="M0 0 C5.94 0 11.88 0 18 0 C18 3.63 18 7.26 18 11 C16.88625 10.938125 15.7725 10.87625 14.625 10.8125 C12.830625 10.9053125 12.830625 10.9053125 11 11 C10.01 12.485 10.01 12.485 9 14 C8.360625 13.814375 7.72125 13.62875 7.0625 13.4375 C6.0415625 13.2209375 6.0415625 13.2209375 5 13 C4.67 13.33 4.34 13.66 4 14 C6.31 14.33 8.62 14.66 11 15 C11 15.99 11 16.98 11 18 C7.37 18 3.74 18 0 18 C0 12.06 0 6.12 0 0 Z " fill="#FEFEFE" transform="translate(3,3)"/>
<path d="M0 0 C2.64 0 5.28 0 8 0 C8 0.66 8 1.32 8 2 C5.36 2 2.72 2 0 2 C0 1.34 0 0.68 0 0 Z " fill="#FFFFFF" transform="translate(15,18)"/>
</svg>
