<?xml version="1.0" encoding="UTF-8"?>
<svg version="1.1" xmlns="http://www.w3.org/2000/svg" width="24" height="24">
<path d="M0 0 C5.94 0 11.88 0 18 0 C18 3.63 18 7.26 18 11 C16.88625 10.938125 15.7725 10.87625 14.625 10.8125 C12.830625 10.9053125 12.830625 10.9053125 11 11 C10.01 12.485 10.01 12.485 9 14 C8.360625 13.814375 7.72125 13.62875 7.0625 13.4375 C6.0415625 13.2209375 6.0415625 13.2209375 5 13 C4.67 13.33 4.34 13.66 4 14 C6.31 14.33 8.62 14.66 11 15 C11 15.99 11 16.98 11 18 C7.37 18 3.74 18 0 18 C0 12.06 0 6.12 0 0 Z " fill="#FEFEFE" transform="translate(3,3)"/>
<path d="M0 0 C0.66 0 1.32 0 2 0 C2 0.99 2 1.98 2 3 C2.99 3 3.98 3 5 3 C5 3.66 5 4.32 5 5 C4.01 5 3.02 5 2 5 C2 5.99 2 6.98 2 8 C1.34 8 0.68 8 0 8 C0 7.01 0 6.02 0 5 C-0.99 5 -1.98 5 -3 5 C-3 4.34 -3 3.68 -3 3 C-2.01 3 -1.02 3 0 3 C0 2.01 0 1.02 0 0 Z " fill="#FFFFFF" transform="translate(18,15)"/>
</svg>
