<?xml version="1.0" encoding="UTF-8"?>
<svg version="1.1" xmlns="http://www.w3.org/2000/svg" width="24" height="24">
<path d="M0 0 C2.9838283 1.98921886 4.60276841 3.38502568 5.4765625 6.9375 C5.75890933 10.86063492 5.21925086 12.67112371 3 16 C-1.11955831 18.74637221 -3.11554047 18.63025284 -8 18 C-10 16.5 -10 16.5 -11 15 C-10.01 14.34 -9.02 13.68 -8 13 C-7.67 13.33 -7.34 13.66 -7 14 C-4.04182893 14.25005386 -4.04182893 14.25005386 -1 14 C1.31563087 12.11499729 1.31563087 12.11499729 1.25 9 C1.31563087 5.88500271 1.31563087 5.88500271 -1 4 C-3.95746492 3.41654524 -3.95746492 3.41654524 -7 4 C-8.9354148 6.39056942 -8.9354148 6.39056942 -10 9 C-9.34 9.33 -8.68 9.66 -8 10 C-8.99 10.99 -9.98 11.98 -11 13 C-14.875 11.25 -14.875 11.25 -16 9 C-15.01 9 -14.02 9 -13 9 C-12.9175 8.071875 -12.835 7.14375 -12.75 6.1875 C-12 3 -12 3 -10.4375 1.125 C-6.93253647 -0.49267548 -3.7373296 -0.76966788 0 0 Z " fill="#FEFEFE" transform="translate(17,3)"/>
</svg>
