<?xml version="1.0" encoding="UTF-8" standalone="no" ?>
<!DOCTYPE svg PUBLIC "-//W3C//DTD SVG 1.1//EN" "http://www.w3.org/Graphics/SVG/1.1/DTD/svg11.dtd">
<svg xmlns="http://www.w3.org/2000/svg" xmlns:xlink="http://www.w3.org/1999/xlink" version="1.1" width="22" height="22" viewBox="0 0 22 22" xml:space="preserve">
<desc>Created with Fabric.js 5.2.4</desc>
<defs>
</defs>
<g transform="matrix(1 0 0 1 540 540)" id="85f12522-5024-48f0-8665-7747b9d1ff23"  >
<rect style="stroke: none; stroke-width: 1; stroke-dasharray: none; stroke-linecap: butt; stroke-dashoffset: 0; stroke-linejoin: miter; stroke-miterlimit: 4; fill: rgb(255,255,255); fill-rule: nonzero; opacity: 1; visibility: hidden;" vector-effect="non-scaling-stroke"  x="-540" y="-540" rx="0" ry="0" width="1080" height="1080" />
</g>
<g transform="matrix(1 0 0 1 540 540)" id="28447f04-ae00-4cca-8b9a-da9aab23f328"  >
</g>
<g transform="matrix(1 0 0 1 11 11)" id="e1b1106a-c55a-4158-8617-5ca14d3f77e4"  >
<path style="stroke: rgb(0,0,0); stroke-width: 0; stroke-dasharray: none; stroke-linecap: butt; stroke-dashoffset: 0; stroke-linejoin: miter; stroke-miterlimit: 4; fill: rgb(255,255,255); fill-rule: nonzero; opacity: 1;" vector-effect="non-scaling-stroke"  transform=" translate(-12, -12)" d="M 15 9 L 5 9 L 5 5 L 15 5 M 12 19 C 10.34314575050762 19 9 17.65685424949238 9 16 C 9 14.34314575050762 10.34314575050762 13 12 13 C 13.65685424949238 13 15 14.343145750507619 15 16 C 15 17.65685424949238 13.65685424949238 19 12 19 M 17 3 L 5 3 C 3.89 3 3 3.9 3 5 L 3 19 C 3 20.104569499661586 3.8954305003384135 21 5 21 L 19 21 C 20.104569499661586 21 21 20.104569499661586 21 19 L 21 7 L 17 3 Z" stroke-linecap="round" />
</g>
</svg>