<?xml version="1.0" encoding="UTF-8" standalone="no" ?>
<!DOCTYPE svg PUBLIC "-//W3C//DTD SVG 1.1//EN" "http://www.w3.org/Graphics/SVG/1.1/DTD/svg11.dtd">
<svg xmlns="http://www.w3.org/2000/svg" xmlns:xlink="http://www.w3.org/1999/xlink" version="1.1" width="22" height="22" viewBox="0 0 22 22" xml:space="preserve">
<desc>Created with Fabric.js 5.2.4</desc>
<defs>
</defs>
<rect x="0" y="0" width="100%" height="100%" fill="transparent"></rect>
<g transform="matrix(1 0 0 1 11 11)" id="14402fb2-810c-4d0c-a75a-a20b5ded12cd"  >
<rect style="stroke: none; stroke-width: 1; stroke-dasharray: none; stroke-linecap: butt; stroke-dashoffset: 0; stroke-linejoin: miter; stroke-miterlimit: 4; fill: rgb(255,255,255); fill-rule: nonzero; opacity: 1; visibility: hidden;" vector-effect="non-scaling-stroke"  x="-11" y="-11" rx="0" ry="0" width="22" height="22" />
</g>
<g transform="matrix(Infinity NaN NaN Infinity 0 0)" id="46143649-b29a-48c3-be8d-7f1c3539c7bd"  >
</g>
<g transform="matrix(0.02 0 0 0.02 38.4 41.1)"  >
<path style="stroke: rgb(0,0,0); stroke-width: 0; stroke-dasharray: none; stroke-linecap: butt; stroke-dashoffset: 0; stroke-linejoin: miter; stroke-miterlimit: 4; fill: rgb(255,255,255); fill-rule: nonzero; opacity: 1;" vector-effect="non-scaling-stroke"  transform=" translate(-12, -12)" d="M 13 9 L 11 9 L 11 7 L 13 7 M 13 17 L 11 17 L 11 11 L 13 11 M 12 2 C 6.477152501692067 2 2 6.477152501692067 2 12 C 2 17.522847498307932 6.477152501692067 22 12 22 C 17.522847498307932 22 22 17.522847498307932 22 12 C 22 6.477152501692067 17.522847498307932 2 12 2 Z" stroke-linecap="round" />
</g>
<g transform="matrix(0 0 0 0 5.4 2.7)"  >
<g style=""   >
</g>
</g>
<g transform="matrix(0 0 0 0 5.4 2.7)"  >
<g style=""   >
</g>
</g>
<g transform="matrix(1 0 0 1 11 11)" id="0d0ccc4f-271c-4493-b9e4-d8d556291fc2"  >
<path style="stroke: rgb(0,0,0); stroke-width: 0; stroke-dasharray: none; stroke-linecap: butt; stroke-dashoffset: 0; stroke-linejoin: miter; stroke-miterlimit: 4; fill: rgb(255,255,255); fill-rule: nonzero; opacity: 1;" vector-effect="non-scaling-stroke"  transform=" translate(-13.2, -12.7)" d="M 15.5 12 C 18 12 20 14 20 16.5 C 20 17.38 19.75 18.21 19.31 18.9 L 22.39 22 L 21 23.39 L 17.88 20.32 C 17.19 20.75 16.37 21 15.5 21 C 13 21 11 19 11 16.5 C 11 14 13 12 15.5 12 M 15.5 14 C 14.119288125423017 14 13 15.119288125423017 13 16.5 C 13 17.880711874576985 14.119288125423017 19 15.5 19 C 16.880711874576985 19 18 17.880711874576985 18 16.5 C 18 15.119288125423017 16.880711874576985 14 15.5 14 M 6 22 C 4.8954305003384135 22 4 21.104569499661586 4 20 L 4 4 C 4 2.89 4.9 2 6 2 L 7 2 L 7 9 L 9.5 7.5 L 12 9 L 12 2 L 18 2 C 19.104569499661586 2 20 2.8954305003384126 20 3.9999999999999996 L 20 11.81 C 18.83 10.69 17.25 10 15.5 10 C 11.910149126099842 10 9 12.910149126099842 9 16.5 C 9 18.81 10.21 20.85 12.03 22 L 6 22 Z" stroke-linecap="round" />
</g>
</svg>