<?xml version="1.0" encoding="UTF-8"?>
<svg version="1.1" xmlns="http://www.w3.org/2000/svg" width="79" height="79">
<path d="M0 0 C4.29 0 8.58 0 13 0 C13 2.31 13 4.62 13 7 C13.60328125 6.7834375 14.2065625 6.566875 14.828125 6.34375 C16.02695312 5.92609375 16.02695312 5.92609375 17.25 5.5 C18.03890625 5.2215625 18.8278125 4.943125 19.640625 4.65625 C22 4 22 4 26 4 C28.28454526 11.34884631 30.56253791 18.6997001 32.8359375 26.05200195 C33.61046207 28.55409968 34.38649807 31.05573005 35.1640625 33.55688477 C36.28000081 37.14738782 37.39053285 40.73952414 38.5 44.33203125 C38.84998047 45.45398392 39.19996094 46.57593658 39.56054688 47.73188782 C39.88087891 48.77274033 40.20121094 49.81359283 40.53125 50.88598633 C40.81548828 51.80309891 41.09972656 52.72021149 41.39257812 53.66511536 C42 56 42 56 42 59 C40.23141309 59.67260351 38.46003984 60.33788395 36.6875 61 C35.70136719 61.37125 34.71523438 61.7425 33.69921875 62.125 C31 63 31 63 28 63 C23.38 47.82 18.76 32.64 14 17 C13.67 32.18 13.34 47.36 13 63 C8.71 63 4.42 63 0 63 C0 42.21 0 21.42 0 0 Z " fill="#FFFFFF" transform="translate(27,2)"/>
<path d="M0 0 C4.29 0 8.58 0 13 0 C13 18.15 13 36.3 13 55 C8.71 55 4.42 55 0 55 C0 36.85 0 18.7 0 0 Z " fill="#FFFFFF" transform="translate(10,10)"/>
<path d="M0 0 C24.75 0 49.5 0 75 0 C75 2.97 75 5.94 75 9 C50.25 9 25.5 9 0 9 C0 6.03 0 3.06 0 0 Z " fill="#FFFFFF" transform="translate(2,68)"/>
</svg>
