<?xml version="1.0" encoding="UTF-8" standalone="no" ?>
<!DOCTYPE svg PUBLIC "-//W3C//DTD SVG 1.1//EN" "http://www.w3.org/Graphics/SVG/1.1/DTD/svg11.dtd">
<svg xmlns="http://www.w3.org/2000/svg" xmlns:xlink="http://www.w3.org/1999/xlink" version="1.1" width="22" height="22" viewBox="0 0 22 22" xml:space="preserve">
<desc>Created with Fabric.js 5.2.4</desc>
<defs>
</defs>
<rect x="0" y="0" width="100%" height="100%" fill="transparent"></rect>
<g transform="matrix(1 0 0 1 540 540)" id="85f12522-5024-48f0-8665-7747b9d1ff23"  >
<rect style="stroke: none; stroke-width: 1; stroke-dasharray: none; stroke-linecap: butt; stroke-dashoffset: 0; stroke-linejoin: miter; stroke-miterlimit: 4; fill: rgb(255,255,255); fill-rule: nonzero; opacity: 1; visibility: hidden;" vector-effect="non-scaling-stroke"  x="-540" y="-540" rx="0" ry="0" width="1080" height="1080" />
</g>
<g transform="matrix(1 0 0 1 540 540)" id="28447f04-ae00-4cca-8b9a-da9aab23f328"  >
</g>
<g transform="matrix(1 0 0 1 11 11)" id="09bc0261-168d-4897-ab47-0bef14567c60"  >
<path style="stroke: rgb(0,0,0); stroke-width: 0; stroke-dasharray: none; stroke-linecap: butt; stroke-dashoffset: 0; stroke-linejoin: miter; stroke-miterlimit: 4; fill: rgb(255,255,255); fill-rule: nonzero; opacity: 1;" vector-effect="non-scaling-stroke"  transform=" translate(-12, -11.96)" d="M 18 16.08 C 17.24 16.08 16.56 16.38 16.04 16.85 L 8.91 12.7 C 8.96 12.47 9 12.24 9 12 C 9 11.76 8.96 11.53 8.91 11.3 L 15.96 7.19 C 16.5 7.69 17.21 8 18 8 C 19.65685424949238 8 21 6.65685424949238 21 5 C 21 3.34314575050762 19.65685424949238 2 18 2 C 16.34314575050762 2 15 3.34314575050762 15 5 C 15 5.24 15.04 5.47 15.09 5.7 L 8.04 9.81 C 7.5 9.31 6.79 9 6 9 C 4.34314575050762 9 3 10.34314575050762 3 12 C 3 13.65685424949238 4.34314575050762 15 6 15 C 6.79 15 7.5 14.69 8.04 14.19 L 15.16 18.34 C 15.11 18.55 15.08 18.77 15.08 19 C 15.08 20.61 16.39 21.91 18 21.91 C 19.61 21.91 20.92 20.61 20.92 19 C 20.92 18.22556784966853 20.61235802613298 17.48285442400354 20.06475180106472 16.935248198935277 C 19.51714557599646 16.387641973867016 18.774432150331467 16.08 18 16.08 Z" stroke-linecap="round" />
</g>
</svg>