<?xml version="1.0" encoding="UTF-8" standalone="no" ?>
<!DOCTYPE svg PUBLIC "-//W3C//DTD SVG 1.1//EN" "http://www.w3.org/Graphics/SVG/1.1/DTD/svg11.dtd">
<svg xmlns="http://www.w3.org/2000/svg" xmlns:xlink="http://www.w3.org/1999/xlink" version="1.1" width="22" height="22" viewBox="0 0 22 22" xml:space="preserve">
<desc>Created with Fabric.js 5.2.4</desc>
<defs>
</defs>
<rect x="0" y="0" width="100%" height="100%" fill="transparent"></rect>
<g transform="matrix(1 0 0 1 11 11)" id="85f12522-5024-48f0-8665-7747b9d1ff23"  >
<rect style="stroke: none; stroke-width: 1; stroke-dasharray: none; stroke-linecap: butt; stroke-dashoffset: 0; stroke-linejoin: miter; stroke-miterlimit: 4; fill: rgb(255,255,255); fill-rule: nonzero; opacity: 1; visibility: hidden;" vector-effect="non-scaling-stroke"  x="-11" y="-11" rx="0" ry="0" width="22" height="22" />
</g>
<g transform="matrix(0 0 0 0 0 0)" id="28447f04-ae00-4cca-8b9a-da9aab23f328"  >
</g>
<g transform="matrix(1 0 0 1 11 11)" id="c2fc8503-e53f-43da-aed1-eb54aa3fa781"  >
<path style="stroke: rgb(0,0,0); stroke-width: 0; stroke-dasharray: none; stroke-linecap: butt; stroke-dashoffset: 0; stroke-linejoin: miter; stroke-miterlimit: 4; fill: rgb(255,255,255); fill-rule: nonzero; opacity: 1;" vector-effect="non-scaling-stroke"  transform=" translate(-12, -11.5)" d="M 12 15.39 L 8.24 17.66 L 9.23 13.38 L 5.91 10.5 L 10.29 10.13 L 12 6.09 L 13.71 10.13 L 18.09 10.5 L 14.77 13.38 L 15.76 17.66 M 22 9.24 L 14.81 8.63 L 12 2 L 9.19 8.63 L 2 9.24 L 7.45 13.97 L 5.82 21 L 12 17.27 L 18.18 21 L 16.54 13.97 L 22 9.24 Z" stroke-linecap="round" />
</g>
</svg>