<?xml version="1.0" encoding="UTF-8"?>
<svg version="1.1" xmlns="http://www.w3.org/2000/svg" width="355" height="364">
<path d="M0 0 C5.40589123 2.5399677 9.13083287 6.72140161 13.32885742 10.90332031 C14.81315947 12.37565416 16.31510259 13.8283063 17.81835938 15.28125 C18.75099609 16.20679687 19.68363281 17.13234375 20.64453125 18.0859375 C21.50409424 18.9320459 22.36365723 19.7781543 23.24926758 20.64990234 C25 23 25 23 24.86726695 24.86509055 C23.70764514 27.71967592 22.05189291 29.32682061 19.87446117 31.50864887 C18.5323258 32.86436921 18.5323258 32.86436921 17.16307658 34.24747783 C16.15883862 35.24661115 15.15445727 36.24560038 14.14994812 37.24446106 C13.09122747 38.30806829 12.03315922 39.37232525 10.97569019 40.43717688 C8.06223594 43.36708275 5.1394328 46.28750526 2.21502221 49.20646989 C-0.93493489 52.35376329 -4.0762856 55.5096267 -7.21878052 58.66436768 C-13.37834511 64.84501487 -19.54617218 71.01735262 -25.71717659 77.18657587 C-30.7303941 82.19848742 -35.74105432 87.21294156 -40.74989891 92.22922325 C-42.19089073 93.67231418 -43.63188331 95.11540436 -45.07287663 96.55849379 C-45.79001394 97.27667463 -46.50715124 97.99485546 -47.24601998 98.73479935 C-60.81710589 112.3247983 -74.39816703 125.90479501 -87.98212036 139.4819304 C-100.42212235 151.91635342 -112.84886231 164.3639356 -125.26951418 176.81768469 C-138.01116508 189.59302547 -150.76202549 202.35910739 -163.52284688 215.11530036 C-170.69178787 222.28199225 -177.85690067 229.45241718 -185.01229286 236.63263893 C-191.10240746 242.74370572 -197.20106781 248.84607942 -203.31114403 254.93719051 C-206.43085378 258.04770567 -209.54632498 261.16218419 -212.65115547 264.2875576 C-215.48973537 267.14471123 -218.33945714 269.9902198 -221.19876709 272.8266234 C-222.23480655 273.85844255 -223.26658056 274.89456472 -224.29375605 275.9352083 C-225.68333125 277.3417646 -227.08967332 278.73169878 -228.49693775 280.12055683 C-229.2755818 280.89947326 -230.05422584 281.67838969 -230.85646516 282.48090965 C-233 284 -233 284 -235.12683934 283.87578124 C-238.05633021 282.50612129 -239.94537074 280.38697744 -242.203125 278.08984375 C-242.6857782 277.60294571 -243.1684314 277.11604767 -243.66571045 276.61439514 C-245.2010085 275.0623455 -246.72552925 273.50017864 -248.25 271.9375 C-249.2909722 270.88147643 -250.3326314 269.82612962 -251.375 268.77148438 C-253.92467633 266.18878585 -256.46479196 263.59691118 -259 261 C-257.49195548 257.46835215 -255.4464524 255.19772168 -252.7402401 252.49414444 C-251.84102534 251.59094758 -250.94181058 250.68775073 -250.01534688 249.75718427 C-249.01124594 248.75878936 -248.00705269 247.7604873 -247.0027771 246.76226807 C-245.94054995 245.69916897 -244.87876232 244.63563057 -243.81737769 243.57169032 C-240.8961774 240.64601034 -237.96876456 237.72661595 -235.0403204 234.80818915 C-231.88470284 231.6611948 -228.73485304 228.50843694 -225.58430481 225.35636902 C-220.12386486 219.89487951 -214.65977002 214.43706876 -209.19318771 208.9817276 C-201.28939777 201.09417997 -193.39112507 193.20112666 -185.49419542 185.30671129 C-172.68233 172.49922496 -159.86600302 159.69621291 -147.046875 146.89599609 C-134.59303724 134.46051158 -122.14129822 122.02293179 -109.69238281 109.58251953 C-108.9252504 108.81591256 -108.15811798 108.04930559 -107.36773913 107.25946811 C-103.51933971 103.41367873 -99.67098158 99.56784803 -95.822644 95.72199678 C-63.8881632 63.80825517 -31.94644325 31.90176659 0 0 Z " fill="#FFFFFF" transform="translate(292,42)"/>
<path d="M0 0 C4.22918566 1.40972855 5.32502715 4.41063317 7.375 8.125 C7.77275635 8.83986572 8.1705127 9.55473145 8.58032227 10.29125977 C12.34135717 17.26792966 14.93186823 24.35040419 17 32 C17.18401367 32.648479 17.36802734 33.29695801 17.55761719 33.96508789 C21.68510839 50.00234093 20.58442064 69.45122097 15 85 C14.62617188 86.05703125 14.25234375 87.1140625 13.8671875 88.203125 C4.79757357 111.62795567 -12.2384387 129.62345593 -34.95410156 140.14355469 C-58.59516343 150.04007557 -85.74004262 150.14222459 -109.40551758 140.51806641 C-116.04474867 137.68716451 -122.2355526 134.37137261 -128 130 C-126.40840205 126.12317304 -123.92194449 123.67557879 -120.9760437 120.73553467 C-120.45980725 120.21758937 -119.94357081 119.69964407 -119.41169083 119.16600347 C-117.68135895 117.43237839 -115.94397773 115.70599653 -114.20654297 113.97949219 C-112.96445489 112.73796826 -111.72280705 111.49600375 -110.48156738 110.25363159 C-107.11022433 106.88171418 -103.73274562 103.51600341 -100.35414648 100.1513586 C-96.82449775 96.63420322 -93.30050319 93.11139208 -89.77590942 89.58917236 C-83.1005238 82.92000561 -76.4200558 76.25595396 -69.73775494 69.59371686 C-62.13052841 62.00883665 -54.5289728 54.41828397 -46.92789245 46.82724524 C-31.29157143 31.21183542 -15.64812879 15.60357669 0 0 Z " fill="#FFFFFF" transform="translate(273,154)"/>
<path d="M0 0 C-0.68707031 0.5465625 -1.37414062 1.093125 -2.08203125 1.65625 C-26.91939017 21.60593588 -44.25490051 45.9267794 -49 78 C-50.86411424 109.23484105 -44.82547744 137.68233107 -24 162 C-17.30245804 169.45044257 -10.24648342 175.97528373 -1.94921875 181.609375 C-1.30597656 182.06828125 -0.66273437 182.5271875 0 183 C0 183.33 0 183.66 0 184 C-23.7939154 185.06716896 -45.76360696 176.47905272 -63.3125 160.625 C-74.45632024 150.17606845 -82.38685119 138.79750358 -87.75 124.5625 C-88.04406738 123.78777344 -88.33813477 123.01304687 -88.64111328 122.21484375 C-92.20912828 112.33100834 -93.3716923 102.6594628 -93.3125 92.1875 C-93.30686035 91.13433594 -93.3012207 90.08117187 -93.29541016 88.99609375 C-93.17020182 80.94308997 -92.42732055 73.72329267 -90 66 C-89.70996094 65.05833984 -89.70996094 65.05833984 -89.4140625 64.09765625 C-84.72961766 49.26358091 -77.02077883 37.03955359 -66 26 C-65.25363281 25.24203125 -64.50726563 24.4840625 -63.73828125 23.703125 C-46.49289752 7.17036043 -23.73901103 -0.97409316 0 0 Z " fill="#FFFFFF" transform="translate(101,17)"/>
<path d="M0 0 C0.66 0 1.32 0 2 0 C3.67531673 3.93387538 5.33875803 7.87266263 7 11.8125 C7.47695312 12.93205078 7.95390625 14.05160156 8.4453125 15.20507812 C8.89648438 16.27822266 9.34765625 17.35136719 9.8125 18.45703125 C10.44091797 19.9416687 10.44091797 19.9416687 11.08203125 21.45629883 C12 24 12 24 12 27 C12.80219971 26.98952637 13.60439941 26.97905273 14.4309082 26.96826172 C18.05807372 26.92674233 21.68518928 26.90068657 25.3125 26.875 C26.57513672 26.85824219 27.83777344 26.84148438 29.13867188 26.82421875 C30.95141602 26.81455078 30.95141602 26.81455078 32.80078125 26.8046875 C33.91622314 26.79421387 35.03166504 26.78374023 36.1809082 26.77294922 C39 27 39 27 42 29 C34.66666667 35 27.33333333 41 20 47 C22.64 56.24 25.28 65.48 28 75 C24.53699125 74.13424781 22.73711625 73.39662204 19.8125 71.56640625 C18.64074219 70.8403418 18.64074219 70.8403418 17.4453125 70.09960938 C16.63835937 69.59236328 15.83140625 69.08511719 15 68.5625 C13.39672378 67.56237322 11.7925862 66.56362564 10.1875 65.56640625 C9.12595703 64.90040405 9.12595703 64.90040405 8.04296875 64.22094727 C6.0695943 63.04159191 4.06935208 61.99950868 2 61 C1.45061768 61.38333496 0.90123535 61.76666992 0.33520508 62.16162109 C-2.16883415 63.90454856 -4.67808395 65.63982392 -7.1875 67.375 C-8.05181641 67.97828125 -8.91613281 68.5815625 -9.80664062 69.203125 C-10.64775391 69.78320312 -11.48886719 70.36328125 -12.35546875 70.9609375 C-13.12528076 71.49509277 -13.89509277 72.02924805 -14.68823242 72.57958984 C-17.05665476 74.03481016 -19.39435834 75.04479958 -22 76 C-20.79184485 68.90741862 -19.31897091 61.92892237 -17.5859375 54.9453125 C-17.39257812 53.97335938 -17.19921875 53.00140625 -17 52 C-16.81308594 51.17371094 -16.62617188 50.34742188 -16.43359375 49.49609375 C-17.41405389 45.17530735 -21.18493457 43.36094605 -24.6875 40.9375 C-26.12926983 39.90545565 -27.57068404 38.87291429 -29.01171875 37.83984375 C-29.69669434 37.35370605 -30.38166992 36.86756836 -31.08740234 36.36669922 C-33.47564847 34.66011231 -35.80132267 32.94715211 -38 31 C-38 30.34 -38 29.68 -38 29 C-23.645 28.01 -23.645 28.01 -9 27 C-8.01 23.7 -7.02 20.4 -6 17 C-4.95676457 13.94898056 -3.90185333 10.90905075 -2.8125 7.875 C-2.40354492 6.72644531 -2.40354492 6.72644531 -1.98632812 5.5546875 C-1.32642806 3.70233645 -0.66354315 1.85104916 0 0 Z " fill="#FFFFFF" transform="translate(163,8)"/>
<path d="M0 0 C2.70941138 1.35470569 2.85515547 2.67693096 3.9453125 5.47265625 C4.26516113 6.28226807 4.58500977 7.09187988 4.91455078 7.92602539 C5.31399902 8.96106201 5.71344727 9.99609863 6.125 11.0625 C7.40375 14.341875 8.6825 17.62125 10 21 C20.89 21.495 20.89 21.495 32 22 C30.71160058 25.86519827 28.85887311 26.97970349 25.6875 29.5 C24.72199219 30.2734375 23.75648438 31.046875 22.76171875 31.84375 C20.52600682 33.58931292 18.27873373 35.31124721 16 37 C17.85095167 44.78829599 17.85095167 44.78829599 20.1875 52.4375 C21.03830489 55.12080773 21.06062004 57.20681511 21 60 C19.12359867 58.91909567 17.24894576 57.83515594 15.375 56.75 C14.27929688 56.11578125 13.18359375 55.4815625 12.0546875 54.828125 C9.77184451 53.46192229 7.63699512 52.07229693 5.5 50.5 C3.2008444 48.76693271 3.2008444 48.76693271 1.05297852 49.26123047 C-1.0935078 50.03364902 -2.54396651 50.93384069 -4.34765625 52.3203125 C-4.95287109 52.77277344 -5.55808594 53.22523438 -6.18164062 53.69140625 C-7.44178794 54.65189236 -8.69958471 55.61546976 -9.95507812 56.58203125 C-11.58403234 57.79548914 -13.28845768 58.90611025 -15 60 C-15.99 59.67 -16.98 59.34 -18 59 C-17.84329834 58.44014404 -17.68659668 57.88028809 -17.52514648 57.3034668 C-16.82051137 54.76714862 -16.12888291 52.22746107 -15.4375 49.6875 C-15.19064453 48.80642578 -14.94378906 47.92535156 -14.68945312 47.01757812 C-14.46064453 46.17001953 -14.23183594 45.32246094 -13.99609375 44.44921875 C-13.67402954 43.27879028 -13.67402954 43.27879028 -13.34545898 42.0847168 C-12.80246543 39.81416206 -12.80246543 39.81416206 -14 37 C-15.60262351 35.52019822 -15.60262351 35.52019822 -17.59765625 34.15234375 C-18.31630859 33.62962891 -19.03496094 33.10691406 -19.77539062 32.56835938 C-20.53013672 32.03017578 -21.28488281 31.49199219 -22.0625 30.9375 C-23.55762535 29.86919038 -25.0487536 28.79525682 -26.53515625 27.71484375 C-27.199104 27.24167725 -27.86305176 26.76851074 -28.54711914 26.28100586 C-29.02656982 25.85827393 -29.50602051 25.43554199 -30 25 C-30 24.34 -30 23.68 -30 23 C-22.41 22.67 -14.82 22.34 -7 22 C-6.67 20.35 -6.34 18.7 -6 17 C-5.55929553 15.58815846 -5.08931301 14.18510646 -4.58984375 12.79296875 C-4.32236328 12.04208984 -4.05488281 11.29121094 -3.77929688 10.51757812 C-3.36260742 9.36418945 -3.36260742 9.36418945 -2.9375 8.1875 C-2.65583984 7.39923828 -2.37417969 6.61097656 -2.08398438 5.79882812 C-1.39241462 3.86477711 -0.69662722 1.93223512 0 0 Z " fill="#FFFFFF" transform="translate(114,84)"/>
<path d="M0 0 C19.04365202 0.70173559 38.01564314 2.39990712 57 4 C55.1376019 7.97073304 52.56112845 11.03549094 49.6875 14.3125 C49.15987061 14.92134033 48.63224121 15.53018066 48.08862305 16.1574707 C46.39650248 18.10857662 44.69870775 20.05462794 43 22 C40.76901795 24.56092509 38.54042004 27.12391106 36.3125 29.6875 C35.77093262 30.30866699 35.22936523 30.92983398 34.67138672 31.56982422 C30.54720963 36.31732154 26.5892716 41.17285791 22.70703125 46.12109375 C21.86205078 47.05115234 21.86205078 47.05115234 21 48 C20.34 48 19.68 48 19 48 C16.29169173 41.32576638 13.58605973 34.65045258 10.88232422 27.97436523 C9.9613978 25.70132624 9.03984909 23.42853927 8.11767578 21.15600586 C6.79557914 17.89762696 5.47569154 14.63836104 4.15625 11.37890625 C3.74064819 10.35599991 3.32504639 9.33309357 2.89685059 8.27919006 C2.32625916 6.86784035 2.32625916 6.86784035 1.74414062 5.42797852 C1.40660767 4.59524918 1.06907471 3.76251984 0.72131348 2.90455627 C0 1 0 1 0 0 Z " fill="#FFFFFF" transform="translate(290,144)"/>
<path d="M0 0 C0.27801931 10.27059752 -0.47450827 20.44846526 -1.22680664 30.68481445 C-1.43929336 33.586994 -1.64290482 36.48970715 -1.84570312 39.39257812 C-1.97864273 41.24222523 -2.11208764 43.09183611 -2.24609375 44.94140625 C-2.3065538 45.80697647 -2.36701385 46.67254669 -2.42930603 47.56434631 C-2.51928612 48.76721535 -2.51928612 48.76721535 -2.61108398 49.99438477 C-2.66215805 50.69765396 -2.71323212 51.40092316 -2.76585388 52.12550354 C-3 54 -3 54 -4 57 C-7.86242919 55.4020683 -10.58216189 52.77849763 -13.5625 49.9375 C-17.43675897 46.31013008 -21.35785875 42.82453427 -25.5 39.5 C-30.16143104 35.75191176 -34.57772481 31.8027895 -38.94140625 27.71679688 C-41.01098297 25.78575739 -43.05064774 23.96342576 -45.34765625 22.3046875 C-45.89292969 21.87414062 -46.43820313 21.44359375 -47 21 C-47 20.34 -47 19.68 -47 19 C-40.46821853 16.29165425 -33.93531627 13.5860264 -27.40161133 10.88232422 C-25.17706544 9.96140744 -22.95278105 9.03985876 -20.72875977 8.11767578 C-17.53990415 6.79555395 -14.35012823 5.47567561 -11.16015625 4.15625 C-10.15912369 3.74064819 -9.15809113 3.32504639 -8.12672424 2.89685059 C-7.20584518 2.5164563 -6.28496613 2.13606201 -5.33618164 1.74414062 C-4.52121719 1.40660767 -3.70625275 1.06907471 -2.86659241 0.72131348 C-1 0 -1 0 0 0 Z " fill="#FFFFFF" transform="translate(265,299)"/>
<path d="M0 0 C3.73323926 1.24441309 4.59860164 2.72687968 7 5.8125 C10.36079596 10.02986246 13.82023567 14.05946497 17.5 18 C21.86099484 22.68698661 25.97275867 27.52275 29.984375 32.515625 C31.79499846 34.74732368 33.65912568 36.91008605 35.5625 39.0625 C38 42 38 42 38 44 C32.13294309 44.43374231 26.26544232 44.86068723 20.39746094 45.28173828 C18.40742124 45.42544551 16.41750737 45.57090775 14.42773438 45.71826172 C3.26489531 46.54368292 -7.79970434 47.25952198 -19 47 C-13.27735461 31.0843762 -6.59616316 15.56800092 0 0 Z " fill="#FFFFFF" transform="translate(309,227)"/>
<path d="M0 0 C6.20348896 1.97119404 12.20511952 4.24134413 18.19140625 6.79296875 C19.02212143 7.14386063 19.85283661 7.4947525 20.70872498 7.85627747 C23.32800851 8.96350707 25.94527497 10.07541462 28.5625 11.1875 C30.35208154 11.9449734 32.14179393 12.70213772 33.93164062 13.45898438 C38.2892798 15.30242359 42.64511809 17.1500571 47 19 C45.34004647 22.55095777 43.52471095 24.5854939 40.5625 27.1875 C39.21671875 28.37085938 39.21671875 28.37085938 37.84375 29.578125 C34.21178771 32.6712797 30.50938246 35.67142253 26.80078125 38.671875 C22.92780612 41.89125182 19.23069705 45.28817696 15.51953125 48.69140625 C6.45177665 57 6.45177665 57 4 57 C0.62473743 16.95408138 0.62473743 16.95408138 0 0 Z " fill="#FFFFFF" transform="translate(135,299)"/>
</svg>
