<?xml version="1.0" encoding="UTF-8" standalone="no" ?>
<!DOCTYPE svg PUBLIC "-//W3C//DTD SVG 1.1//EN" "http://www.w3.org/Graphics/SVG/1.1/DTD/svg11.dtd">
<svg xmlns="http://www.w3.org/2000/svg" xmlns:xlink="http://www.w3.org/1999/xlink" version="1.1" width="22" height="22" viewBox="0 0 22 22" xml:space="preserve">
<desc>Created with Fabric.js 5.2.4</desc>
<defs>
</defs>
<g transform="matrix(1 0 0 1 11 11)" id="86be83fd-104f-4887-832c-ed31c1e2ae75"  >
<rect style="stroke: none; stroke-width: 1; stroke-dasharray: none; stroke-linecap: butt; stroke-dashoffset: 0; stroke-linejoin: miter; stroke-miterlimit: 4; fill: rgb(255,255,255); fill-rule: nonzero; opacity: 1; visibility: hidden;" vector-effect="non-scaling-stroke"  x="-11" y="-11" rx="0" ry="0" width="22" height="22" />
</g>
<g transform="matrix(Infinity NaN NaN Infinity 0 0)" id="a7cea04e-ac7a-47a4-a5f0-d03fab67ca16"  >
</g>
<g transform="matrix(1 0 0 1 11 11)" id="dda30bf1-a1f7-482d-9c9a-6dc3a07be033"  >
<path style="stroke: rgb(0,0,0); stroke-width: 0; stroke-dasharray: none; stroke-linecap: butt; stroke-dashoffset: 0; stroke-linejoin: miter; stroke-miterlimit: 4; fill: rgb(255,255,255); fill-rule: nonzero; opacity: 1;" vector-effect="non-scaling-stroke"  transform=" translate(-12, -12)" d="M 12 16 C 13.104569499661586 16 14 16.895430500338414 14 18 C 14 19.104569499661586 13.104569499661586 20 12 20 C 10.895430500338414 20 10 19.104569499661586 10 18 C 10 16.895430500338414 10.895430500338414 16 12 16 M 12 10 C 13.104569499661586 10 14 10.895430500338414 14 12 C 14 13.104569499661586 13.104569499661586 14 12 14 C 10.895430500338414 14 10 13.104569499661586 10 12 C 10 10.895430500338414 10.895430500338414 10 12 10 M 12 4 C 13.104569499661586 4 14 4.895430500338413 14 6 C 14 7.1045694996615865 13.104569499661586 8 12 8 C 10.895430500338414 8 10 7.1045694996615865 10 6 C 10 4.8954305003384135 10.895430500338414 4 12 4 Z" stroke-linecap="round" />
</g>
</svg>