<?xml version="1.0" encoding="UTF-8"?>
<svg version="1.1" xmlns="http://www.w3.org/2000/svg" width="3000" height="3000">
<path d="M0 0 C2.42541195 -0.00737504 4.85076787 -0.01923432 7.27615738 -0.03188324 C24.25066886 -0.10783982 41.09770199 0.22767785 58.01160049 1.74637604 C59.0376184 1.8381481 59.0376184 1.8381481 60.08436394 1.93177414 C114.3499297 6.9071404 165.16745519 21.60547035 205.66394424 59.36746979 C206.40386612 60.05325104 207.14378799 60.73903229 207.90613174 61.44559479 C221.61412281 74.6169741 232.18701054 90.99471847 241.66394424 107.36746979 C243.89860896 104.55499457 245.72799955 101.60773108 247.51672745 98.49588776 C273.32672385 53.80038644 314.96195278 26.05213485 364.25378799 12.84403229 C386.12478733 7.20956645 408.41192169 3.69192129 430.89831924 1.74637604 C431.64028172 1.68185116 432.38224419 1.61732628 433.14669037 1.5508461 C449.99581775 0.11995442 466.7965566 -0.10970353 483.69758224 -0.01925278 C486.0884502 -0.00728235 488.47929192 -0.00035007 490.87018204 0.00556183 C513.19785013 0.06950075 535.39571755 0.40815329 557.58362198 3.11746979 C559.77647277 3.38099276 561.97073821 3.62785972 564.16589737 3.87137604 C606.42061156 8.58471448 648.2259128 16.33432194 689.67969131 25.69956207 C692.75218979 26.38722008 695.82806359 27.05761855 698.90515518 27.72440338 C704.04546157 28.84110962 709.1740239 30.00175687 714.29715347 31.19470978 C716.2277952 31.63811354 718.16156005 32.06816191 720.09836197 32.48383331 C734.69689269 35.6375357 734.69689269 35.6375357 738.86951065 39.30716705 C740.50336576 41.91347533 741.54544255 44.50021192 742.66394424 47.36746979 C743.69470396 49.43309728 744.77491359 51.46878424 745.85725784 53.50782013 C747.07446193 55.80739533 748.26134508 58.12034385 749.44031143 60.43973541 C751.95544441 65.38685647 754.4805968 70.32879511 757.00769424 75.26981354 C757.62290939 76.47388351 757.62290939 76.47388351 758.25055313 77.70227814 C761.27014994 83.60912203 764.31776986 89.50033343 767.41394424 95.36746979 C767.7584462 96.02094391 768.10294815 96.67441803 768.45788956 97.3476944 C769.10782559 98.57557989 769.77092217 99.7966247 770.44935989 101.00899506 C771.66394424 103.36746979 771.66394424 103.36746979 772.94548416 106.54236603 C775.81824119 113.34546806 775.81824119 113.34546806 781.47226334 117.6480484 C784.98615317 118.21550469 788.3269932 118.37494435 791.88660049 118.40653229 C793.22722325 118.46485046 794.56760625 118.52891992 795.9077034 118.59827423 C799.46878881 118.76763808 803.02798839 118.86203445 806.59210587 118.93949127 C809.99630001 119.02399013 813.39649565 119.17254617 816.79870987 119.31668854 C826.08612595 119.69241753 835.37512473 120.02820325 844.66394424 120.36746979 C862.48394424 121.35746979 880.30394424 122.34746979 898.66394424 123.36746979 C898.66394424 405.84746979 898.66394424 688.32746979 898.66394424 979.36746979 C881.43485013 979.36746979 881.43485013 979.36746979 873.7635994 978.75559902 C872.87549971 978.68945285 871.98740003 978.62330668 871.07238823 978.55515608 C868.14113227 978.3354818 865.21055421 978.10784181 862.27991104 977.88014984 C860.13946905 977.71808344 857.99898899 977.55651923 855.85847473 977.39541012 C850.01087377 976.95386226 844.16382659 976.5053325 838.31684756 976.05563414 C831.99821478 975.57092845 825.67908231 975.09282191 819.36000443 974.61396027 C808.42162125 973.78421099 797.48354497 972.9505267 786.54565811 972.11426353 C770.72396647 970.90469077 754.9016866 969.70295012 739.07923722 968.50333465 C731.699443 967.94381262 724.319676 967.38393167 716.9399147 966.82397556 C716.2013215 966.76793388 715.4627283 966.71189221 714.70175348 966.65415229 C697.14452773 965.32190021 679.58755867 963.98627802 662.03064346 962.64994049 C660.87913087 962.56229605 660.87913087 962.56229605 659.70435539 962.47288102 C642.56009367 961.16797646 625.41588455 959.8623822 608.27173377 958.55602087 C601.26591724 958.02218865 594.26009737 957.48840026 587.25427628 956.95462799 C586.48580371 956.89607675 585.71733113 956.8375255 584.92557152 956.77719998 C567.38176695 955.44053136 549.83786861 954.10511446 532.29362869 952.77417088 C531.55643721 952.71824573 530.81924573 952.66232058 530.05971511 952.60470074 C522.70063389 952.0464578 515.34153332 951.48847044 507.98240514 950.93084688 C492.17499148 949.73302887 476.36789519 948.53123148 460.56140371 947.32130135 C449.04666317 946.43996545 437.53152621 945.56402067 426.01597387 944.69334655 C419.77687571 944.22142884 413.53799629 943.74697791 407.29959679 943.26590538 C401.59237026 942.8258368 395.88466021 942.39272941 390.17647994 941.96521509 C388.10864644 941.80908778 386.04100697 941.65036511 383.9735893 941.48882478 C381.16872357 941.2700326 378.36331015 941.06059286 375.55755997 940.85349941 C374.75079018 940.78830293 373.9440204 940.72310644 373.11280304 940.6559343 C366.12218375 940.15778522 360.26993084 940.73661503 353.95300674 943.99246979 C352.88614639 944.52992828 351.81928604 945.06738678 350.72009659 945.6211319 C349.58781631 946.1974234 348.45553604 946.7737149 347.28894424 947.36746979 C290.03318752 975.79004629 231.84742299 978.11731785 171.54285049 958.04325104 C162.36383344 954.87982552 153.24891504 951.68372306 144.49206924 947.46903229 C143.01335342 946.7687088 143.01335342 946.7687088 141.50476456 946.05423737 C139.70820731 945.18513967 137.928208 944.28013509 136.17468643 943.32718658 C130.16140142 940.40182049 125.15142803 940.21428342 118.63635445 940.66114712 C117.76000117 940.71340908 116.88364789 940.76567105 115.98073845 940.81951671 C113.20747697 940.98939388 110.43579441 941.1760219 107.66394424 941.36746979 C106.80554865 941.4253969 105.94715306 941.48332401 105.06274548 941.54300649 C98.74117297 941.97370827 92.42330281 942.4494849 86.10538101 942.93035126 C84.00684011 943.08817356 81.90828234 943.24577157 79.80970943 943.40316767 C74.10115756 943.83193949 68.39284228 944.26378963 62.68456268 944.69616902 C56.50613275 945.16358929 50.32748092 945.62805887 44.1488533 946.09285736 C33.46009704 946.8972932 22.77147084 947.70343396 12.08292389 948.51064491 C-4.10062743 949.73278959 -20.28450133 950.95062754 -36.46844254 952.16759692 C-42.97618058 952.65697191 -49.4839084 953.14648282 -55.99163628 953.635993 C-56.71442153 953.69036013 -57.43720679 953.74472726 -58.18189463 953.80074188 C-75.3511974 955.09222332 -92.52040057 956.38502648 -109.68957138 957.6782608 C-110.43996827 957.73478194 -111.19036517 957.79130308 -111.96350136 957.84953697 C-129.48059362 959.16896557 -146.99763428 960.48907674 -164.51458359 961.81040192 C-165.26874209 961.86728858 -166.0229006 961.92417524 -166.79991239 961.98278574 C-170.60326972 962.26967685 -174.40662663 962.55657346 -178.20998348 962.84347092 C-178.96175229 962.90017871 -179.71352109 962.9568865 -180.48807077 963.0153127 C-182.00544718 963.1297724 -183.52282354 963.24423286 -185.04019984 963.3586941 C-210.12595353 965.25098218 -235.21197271 967.13971781 -260.29828897 969.02453361 C-263.84228498 969.29081029 -267.38627739 969.5571347 -270.93026733 969.82349205 C-271.6276507 969.87590527 -272.32503406 969.92831849 -273.04355026 969.98231998 C-284.2462687 970.82440142 -295.44869335 971.67033125 -306.65100464 972.51781005 C-317.90885084 973.3694287 -329.166978 974.2172508 -340.42538457 975.06143505 C-346.51946533 975.51850868 -352.61340504 975.97728853 -358.70701027 976.44066238 C-364.28995607 976.86517182 -369.87324576 977.28481923 -375.4568422 977.70068067 C-377.47142296 977.85157808 -379.48587317 978.00423137 -381.50017057 978.15886522 C-384.25018848 978.36971741 -387.00062299 978.57401205 -389.7512455 978.77680302 C-390.5221535 978.8374823 -391.29306149 978.89816158 -392.08733034 978.96067962 C-399.21887827 979.47407398 -406.11800493 979.36746979 -413.33605576 979.36746979 C-413.33605576 699.19746979 -413.33605576 419.02746979 -413.33605576 130.36746979 C-375.71605576 128.05746979 -338.09605576 125.74746979 -299.33605576 123.36746979 C-295.04605576 114.78746979 -290.75605576 106.20746979 -286.33605576 97.36746979 C-281.33605576 87.86746979 -281.33605576 87.86746979 -278.93761826 83.35184479 C-275.21839128 76.28560432 -271.68966588 69.12179981 -268.15246201 61.96317291 C-267.11515491 59.87148912 -266.05902237 57.78904628 -264.98522568 55.71585846 C-263.78566395 53.28033083 -262.75669809 50.93679638 -261.77477646 48.41947174 C-259.49458871 42.93333413 -257.36588663 37.95608545 -251.70812607 35.40311432 C-247.16732749 33.80729706 -242.49373507 32.93994 -237.77355576 32.05496979 C-235.9997402 31.67458082 -234.22713058 31.28853076 -232.45568466 30.89725494 C-228.69582519 30.07808727 -224.93073813 29.29756713 -221.15685654 28.54569244 C-215.37234259 27.38840159 -209.61828885 26.11215869 -203.86339951 24.81668854 C-161.93276752 15.44986143 -119.71626777 8.32689401 -77.00536728 3.66172028 C-74.55102383 3.39116671 -72.09826662 3.10952028 -69.64562607 2.82401276 C-46.49359665 0.17438698 -23.27468643 0.06102991 0 0 Z M-63.00274277 34.11423492 C-65.45176436 34.38002766 -67.90179425 34.63449245 -70.35216904 34.88748932 C-115.74795381 39.61927919 -160.55762399 47.59315099 -204.96886826 58.07840729 C-205.87603592 58.29155579 -206.78320358 58.50470428 -207.71786118 58.72431183 C-208.55495621 58.92414673 -209.39205124 59.12398163 -210.25451279 59.32987213 C-210.9957338 59.50626221 -211.7369548 59.68265228 -212.50063705 59.86438751 C-214.41177686 60.32413596 -214.41177686 60.32413596 -216.33605576 61.36746979 C-216.33605576 277.84746979 -216.33605576 494.32746979 -216.33605576 717.36746979 C-208.85282343 716.68717594 -201.64392879 715.84869377 -194.27746201 714.54715729 C-192.12202958 714.17581309 -189.96650793 713.80498648 -187.81090927 713.43460846 C-186.68580948 713.24015137 -185.56070969 713.04569427 -184.40151596 712.84534454 C-149.20247881 706.78743646 -113.86660148 701.72809959 -78.33605576 698.05496979 C-77.61008194 697.97942871 -76.88410812 697.90388763 -76.1361351 697.82605743 C-70.87376706 697.28590592 -65.60692557 696.8162161 -60.33605576 696.36746979 C-59.36010452 696.28133423 -58.38415329 696.19519867 -57.37862778 696.10645294 C-39.08504249 694.52092133 -20.90416417 694.02048354 -2.55651474 694.05179596 C0.37332935 694.05641793 3.30275721 694.04951149 6.23254776 694.03128815 C81.27056948 693.5699186 163.01315867 706.90381583 219.43909073 760.43289948 C221.77111979 762.64517668 223.98024986 764.5783402 226.66394424 766.36746979 C226.73247865 710.88113803 226.7961531 655.39480226 226.8333168 599.90843964 C226.83386903 599.08606098 226.83442126 598.26368232 226.83499022 597.41638309 C226.84696433 579.54006368 226.8580447 561.66374382 226.86820556 543.78742329 C226.87319452 535.01975315 226.87838079 526.25208312 226.88367081 517.48441315 C226.88445536 516.17574216 226.88445536 516.17574216 226.88525577 514.84063338 C226.90227415 486.60727988 226.93229911 458.3739586 226.96913313 430.14062458 C227.00694376 401.10569175 227.03150458 372.07077672 227.0396042 343.03581969 C227.04075667 338.92648353 227.04205922 334.81714744 227.04345322 330.70781136 C227.04372291 329.8991056 227.0439926 329.09039983 227.04427047 328.25718784 C227.04898103 315.28574305 227.06748894 302.3143536 227.09127238 289.3429313 C227.11493575 276.27411273 227.12378774 263.20534853 227.11794975 250.13650932 C227.11492791 242.3902999 227.12283275 234.64429085 227.14713442 226.89811795 C227.16411392 221.08384989 227.15967561 215.26974377 227.14753982 209.45547078 C227.1458688 207.1252561 227.15077427 204.79502377 227.16347697 202.46484312 C227.39580409 157.15837058 216.2865727 115.07093719 184.41394424 81.80496979 C156.76123775 54.92039403 118.93253662 41.95490801 81.66394424 35.61746979 C80.50338516 35.41879303 79.34282608 35.22011627 78.14709854 35.01541901 C56.51931474 31.53960496 34.95085268 30.99591163 13.09456253 31.04941177 C10.75843613 31.05504333 8.42231698 31.05787019 6.08618546 31.06049347 C-17.03617401 31.09821567 -39.99846946 31.60284055 -63.00274277 34.11423492 Z M327.66394424 61.36746979 C327.03294815 61.71390533 326.40195206 62.06034088 325.75183487 62.41727448 C293.63161444 80.31095487 274.77835722 106.24423288 264.51160049 141.22293854 C258.06893911 165.07294162 257.51037992 189.61398704 257.54368973 214.15236664 C257.54325312 216.553572 257.54237655 218.95477731 257.54110056 221.35598236 C257.5393371 226.55596409 257.54064897 231.75593543 257.54473877 236.95591545 C257.55080304 244.68795379 257.55107187 252.41998495 257.55019678 260.15202524 C257.54888634 273.16197234 257.55221109 286.17191435 257.55821419 299.18185997 C257.5641393 312.05591037 257.56798177 324.92995864 257.569067 337.80401039 C257.56913574 338.60567408 257.56920448 339.40733777 257.5692753 340.2332943 C257.56961366 344.30484593 257.56991503 348.37639755 257.57020218 352.44794918 C257.57230036 381.25681752 257.57903149 410.06568309 257.58850479 438.87454987 C257.59769504 466.85501847 257.6047758 494.83548631 257.6090126 522.81595612 C257.60914413 523.6790416 257.60927566 524.54212708 257.60941117 525.43136666 C257.61072973 534.09914092 257.61200554 542.76691518 257.61325003 551.43468944 C257.61578597 569.09059205 257.61860722 586.74649462 257.6216011 604.40239716 C257.62173839 605.21411589 257.62187568 606.02583463 257.62201713 606.8621509 C257.6312116 661.0305917 257.64707693 715.19903091 257.66394424 769.36746979 C258.76362775 768.43181209 259.86230584 767.49497265 260.9605751 766.55765533 C261.57251221 766.03608353 262.18444931 765.51451172 262.81492996 764.9771347 C265.11853468 762.97172473 267.33158501 760.88233352 269.54382706 758.7773819 C311.9115639 718.55508036 363.02224772 700.76974285 420.58972549 695.74637604 C421.32707994 695.68185116 422.06443439 695.61732628 422.82413292 695.5508461 C441.17517773 693.98929095 459.50880617 693.89499502 477.91487122 693.98074722 C480.65025067 693.99268275 483.38560737 693.99963761 486.12100601 694.00556183 C512.21850883 694.07102547 538.20713855 694.43889095 564.1892128 697.11423492 C566.79488685 697.38086891 569.4015955 697.63494392 572.00867081 697.88748932 C612.76797403 701.87833224 652.83478011 708.81601076 692.83142471 717.53885651 C695.77013228 718.17422238 698.71572249 718.77782544 701.66394424 719.36746979 C701.66394424 501.89746979 701.66394424 284.42746979 701.66394424 60.36746979 C688.01133236 56.9451533 688.01133236 56.9451533 674.27331924 54.03543854 C673.26157135 53.83805084 672.24982346 53.64066315 671.20741653 53.43729401 C667.94408754 52.8036385 664.67929101 52.17813942 661.41394424 51.55496979 C660.28000229 51.33781311 659.14606033 51.12065643 657.9777565 50.89691925 C622.5336337 44.12930328 586.95498267 38.44549336 551.06689835 34.6246109 C548.76100601 34.37785641 546.4561402 34.12289102 544.15124893 33.86698151 C522.22999674 31.47919372 500.29962712 31.05991832 478.26768494 30.99955368 C476.14649396 30.99261711 474.02537331 30.98097068 471.90420914 30.96839142 C422.44476775 30.71529625 371.59380175 37.21289082 327.66394424 61.36746979 Z M-248.33605576 95.36746979 C-254.52212623 106.69032362 -260.69559101 118.0198093 -266.83605576 129.36746979 C-271.47575213 137.94155692 -276.13313626 146.5057233 -280.80773544 155.06082916 C-283.44839099 159.89651875 -286.07879599 164.73748441 -288.69543076 169.58621979 C-289.26132919 170.6342276 -289.82722763 171.68223541 -290.41027451 172.76200104 C-291.4820638 174.748184 -292.55250761 176.73509398 -293.62121201 178.72293854 C-294.12007919 179.64719635 -294.61894638 180.57145416 -295.13293076 181.52371979 C-295.60723668 182.42699347 -296.0815426 183.33026716 -296.57022142 184.26091278 C-298.33605576 187.36746979 -298.33605576 187.36746979 -300.36503935 190.09528172 C-308.39008179 201.60542166 -307.43239761 213.5372224 -307.29809189 227.12012482 C-307.30158351 229.74740377 -307.30825708 232.37450103 -307.31880522 235.00174344 C-307.33531841 240.69886479 -307.32237894 246.39531471 -307.28969955 252.09235764 C-307.24124373 260.56338471 -307.23902916 269.0339921 -307.24603546 277.50513251 C-307.25652616 291.75751828 -307.22989391 306.00960647 -307.18189621 320.26190567 C-307.13451407 334.36766663 -307.10375943 348.47330356 -307.0950737 362.57914352 C-307.09452378 363.45712503 -307.09397387 364.33510653 -307.09340728 365.23969353 C-307.09070051 369.69875648 -307.08828948 374.15781953 -307.08599228 378.6168827 C-307.06920161 410.17722127 -307.01533813 441.73739808 -306.93957138 473.29764557 C-306.8660631 503.95258475 -306.80941032 534.60747962 -306.77550888 565.26248932 C-306.77445667 566.2078794 -306.77340446 567.15326948 -306.77232037 568.12730775 C-306.76177195 577.6215483 -306.75156548 587.11578919 -306.74160949 596.61003037 C-306.72132133 615.94984368 -306.69875131 635.28965409 -306.67480087 654.6294632 C-306.67370255 655.51862111 -306.67260423 656.40777903 -306.67147263 657.32388113 C-306.59790244 716.67181139 -306.47114494 776.01965157 -306.33605576 835.36746979 C-304.01292908 832.34242399 -302.23489821 829.38625565 -300.55089951 825.95731354 C-299.75329208 824.34566315 -299.75329208 824.34566315 -298.93957138 822.70145416 C-298.11489365 821.0201944 -298.11489365 821.0201944 -297.27355576 819.30496979 C-293.49076981 811.6134605 -289.62919664 803.9787083 -285.62121201 796.40262604 C-279.91410883 785.6144771 -274.37273564 774.74381433 -268.83605576 763.86746979 C-266.88959446 760.04380937 -264.94141923 756.22102882 -262.99230576 752.39871979 C-262.57219223 751.57206818 -262.1520787 750.74541656 -261.71923447 749.8937149 C-261.2917894 749.0555423 -260.86434433 748.21736969 -260.42394638 747.35379791 C-259.77795347 746.04864045 -259.77795347 746.04864045 -259.11891019 744.71711618 C-257.78818671 742.21693836 -256.42057428 739.91302596 -254.88928092 737.54378003 C-246.44276521 723.93420987 -245.93586545 711.9918028 -246.13351059 696.27928925 C-246.12914248 693.67663072 -246.12037317 691.07397654 -246.10761893 688.4713456 C-246.08703865 682.84322788 -246.10304329 677.21617529 -246.14400101 671.58818245 C-246.20472974 663.22000251 -246.20732462 654.85248414 -246.19858112 646.48412399 C-246.18548677 632.40279808 -246.21868479 618.32194382 -246.27875519 604.24075508 C-246.33803346 590.30937419 -246.37643629 576.37818998 -246.38728333 562.44668388 C-246.38797072 561.57875051 -246.38865812 560.71081713 -246.38936634 559.81658274 C-246.39274992 555.40834497 -246.39576367 551.00010703 -246.3986351 546.5918689 C-246.4196096 515.41138558 -246.48690001 484.23115849 -246.58166122 453.0508194 C-246.67358337 422.7695832 -246.74438123 392.48841727 -246.78673935 362.2070694 C-246.78805461 361.27279534 -246.78936987 360.33852128 -246.79072499 359.37593588 C-246.80391079 349.99311742 -246.81666884 340.61029842 -246.82911358 331.22747895 C-246.8544721 312.11554406 -246.88268462 293.00361373 -246.91262436 273.89168549 C-246.91399726 273.01305244 -246.91537016 272.13441939 -246.91678466 271.22916111 C-247.00870883 212.60849014 -247.16735987 153.9879638 -247.33605576 95.36746979 C-247.66605576 95.36746979 -247.99605576 95.36746979 -248.33605576 95.36746979 Z M732.66394424 99.36746979 C732.40695129 158.55768329 732.16817064 217.74795475 732.02879715 276.93857574 C732.02569087 278.25440629 732.02569087 278.25440629 732.02252183 279.59681928 C731.97761937 298.66505912 731.93606791 317.73330489 731.8979643 336.80155949 C731.87925564 346.15377179 731.85980714 355.50598248 731.83996964 364.85819244 C731.83800825 365.78880787 731.83604686 366.7194233 731.83402604 367.6782392 C731.77020205 397.79638333 731.65760525 427.91410298 731.51948593 458.03199036 C731.37770923 489.00393636 731.28559625 519.97564781 731.25521939 550.94791281 C731.25089761 555.33099337 731.24601307 559.71407314 731.2407856 564.09715271 C731.23977425 564.95973392 731.23876291 565.82231512 731.23772092 566.71103515 C731.22005313 580.5492028 731.1506415 594.38664135 731.06146374 608.22451265 C730.97274398 622.16500689 730.93952591 636.10478455 730.96142358 650.04555073 C730.97176944 657.58784447 730.95835887 665.12818328 730.87586212 672.670084 C729.41622546 713.65364599 729.41622546 713.65364599 745.89098346 749.97540426 C748.57702699 753.59939424 750.54097359 757.52474669 752.53894424 761.55496979 C753.22951104 762.87050392 753.92300959 764.18450842 754.62097549 765.4961319 C754.95435928 766.12792358 755.28774307 766.75971527 755.6312294 767.41065216 C761.60453036 778.72903368 767.61053425 790.029236 773.66394424 801.30496979 C779.38608633 811.96369868 785.05404388 822.64926014 790.66394424 833.36746979 C790.99394424 833.36746979 791.32394424 833.36746979 791.66394424 833.36746979 C791.92095091 774.2867079 792.15972973 715.20588793 792.29909134 656.12471771 C792.3011622 655.24904514 792.30323305 654.37337257 792.30536666 653.47116447 C792.35026967 634.43632578 792.39182106 615.40148116 792.42992419 596.36662768 C792.44863277 587.03072543 792.46808128 577.69482478 792.48791885 568.35892487 C792.48988024 567.42993504 792.49184163 566.50094521 792.49386245 565.54380418 C792.55768037 535.48115115 792.67027259 505.41892353 792.80840256 475.35652778 C792.95019641 444.44027268 793.04229619 413.52425261 793.0726691 382.60767786 C793.07699085 378.23194534 793.08187538 373.85621362 793.08710289 369.4804821 C793.08811424 368.61935147 793.08912558 367.75822084 793.09016757 366.87099534 C793.1078317 353.0590597 793.1772333 339.24785494 793.26642475 325.43621631 C793.35516911 311.52034908 793.38835653 297.60519978 793.36646491 283.68906001 C793.35612277 276.16081758 793.36949172 268.63453393 793.45202637 261.10668564 C794.74622667 219.83732687 794.74622667 219.83732687 778.51623547 182.97669828 C775.51892221 178.75453546 773.19317559 174.19348086 770.78894424 169.61746979 C769.82574994 167.86064003 768.85991458 166.10525361 767.89050674 164.35184479 C763.84909033 156.9259025 760.01752474 149.39195086 756.16394424 141.86746979 C751.13098274 132.04539722 746.06533321 122.24926139 740.78894424 112.55496979 C740.3074794 111.66680573 739.82601456 110.77864166 739.32995987 109.86356354 C738.88587784 109.05403229 738.44179581 108.24450104 737.98425674 107.41043854 C737.6054335 106.71974274 737.22661026 106.02904694 736.83630753 105.31742096 C735.57472541 103.2190752 734.14409234 101.3159204 732.66394424 99.36746979 Z M793.66394424 148.36746979 C798.2162759 156.95240033 803.16050629 165.2683615 808.22644424 173.55496979 C808.9760148 174.78595467 809.72536471 176.01707394 810.47449112 177.24832916 C813.99759309 183.2756829 813.99759309 183.2756829 817.93404685 189.02008262 C822.25939995 194.95282165 822.36966609 200.13931004 822.29480076 207.31524658 C822.30225835 208.50971566 822.30971595 209.70418474 822.31739953 210.93484986 C822.33304233 214.24804304 822.32634873 217.55982279 822.31021442 220.87292274 C822.29818133 224.47788901 822.31518678 228.08273799 822.32850093 231.68768358 C822.34783668 238.00473725 822.3486568 244.32158275 822.33734703 250.6386528 C822.32061384 260.0318452 822.33250184 269.42484903 822.35026074 278.81803177 C822.37932331 294.618987 822.38516491 310.41987123 822.37779045 326.22084808 C822.37056422 341.86667247 822.37364773 357.51243883 822.39051247 373.15825653 C822.39155512 374.13092205 822.39259776 375.10358758 822.39367201 376.10572781 C822.39902073 381.04536784 822.40455377 385.98500765 822.41015776 390.92464739 C822.44952333 425.91568042 822.46575501 460.90668977 822.4683876 495.89774323 C822.47099812 529.89189747 822.48408384 563.8860213 822.51135635 597.8801651 C822.51219278 598.92794014 822.5130292 599.97571518 822.51389098 601.05524098 C822.52230224 611.57739093 822.53092652 622.0995407 822.53970688 632.62169035 C822.55758876 654.05668393 822.57404883 675.49167853 822.5896492 696.92667389 C822.59036824 697.91222879 822.59108728 698.8977837 822.59182811 699.9132039 C822.63968454 765.73128215 822.65439672 831.54937621 822.66394424 897.36746979 C821.62407954 897.29135395 820.58421484 897.21523811 819.51283908 897.13681573 C792.78500219 895.18498863 766.0500447 893.3990827 739.30275726 891.7366122 C734.03519931 891.40878396 728.76778014 891.07873802 723.50033951 890.74903107 C713.25447611 890.10807602 703.00848506 889.46918572 692.76243618 888.83120314 C684.43400823 888.31262267 676.10561642 887.79346556 667.77724838 887.27392387 C644.07993542 885.79571967 620.3825179 884.31920664 596.684971 882.84475742 C595.41603999 882.76580474 594.14710897 882.68685207 592.83972549 882.6055069 C590.93397039 882.48693176 590.93397039 882.48693176 588.98971519 882.36596116 C568.31521127 881.07949411 547.64097234 879.78881973 526.96684495 878.49631725 C505.65587735 877.16405326 484.34470952 875.8350336 463.03333163 874.50934857 C451.10057529 873.76699581 439.16790619 873.02329999 427.23545456 872.27606392 C417.10241294 871.64153216 406.9691899 871.00999998 396.83571985 870.38234583 C391.6731743 870.06249757 386.51072481 869.74126793 381.34850311 869.41623116 C376.61752543 869.11838249 371.88631317 868.8245935 367.15488824 868.53393855 C365.45056267 868.42854214 363.74632553 868.32170297 362.04219404 868.21321372 C342.75753459 865.65100613 342.75753459 865.65100613 325.78894424 871.86746979 C324.62670167 872.79818994 323.45714764 873.71983994 322.28113174 874.63309479 C321.39506241 875.32628815 321.39506241 875.32628815 320.49109268 876.03348541 C292.22698143 896.66885472 249.66451321 899.50971304 216.23669815 894.52787018 C194.6645604 890.90710501 170.54172545 883.245251 154.66394424 867.36746979 C151.73934651 867.07817564 151.73934651 867.07817564 148.25792027 867.17408085 C147.5945447 867.18140861 146.93116914 867.18873636 146.24769129 867.19628618 C137.53912394 867.33728118 128.85044271 867.91078989 120.16032791 868.46169281 C118.2241266 868.58099214 116.28790026 868.69988574 114.35165149 868.81841236 C109.0686483 869.14297924 103.78601672 869.47327143 98.5034312 869.80455744 C92.79200115 870.16171685 87.08023979 870.51350358 81.36851883 870.86597443 C70.19551412 871.55630617 59.02282048 872.25155307 47.85022487 872.94847112 C34.83416637 873.76018941 21.81780341 874.5669734 8.80142555 875.37355173 C-15.1235117 876.85626417 -39.04814717 878.34379336 -62.97264089 879.83364359 C-84.79972142 881.19286003 -106.62699688 882.54889879 -128.45446396 883.90189362 C-129.49608592 883.96646045 -129.49608592 883.96646045 -130.55875075 884.03233167 C-132.65959976 884.16255657 -134.76044883 884.29278058 -136.86129791 884.42300457 C-139.65188408 884.59598349 -142.44247012 884.76896449 -145.23305607 884.94194698 C-146.2659766 885.00597452 -146.2659766 885.00597452 -147.31976421 885.07129554 C-169.49747832 886.4460554 -191.67501032 887.82374692 -213.85252035 889.20179461 C-221.6345881 889.68531202 -229.41668232 890.16840104 -237.19879613 890.6511765 C-249.53970091 891.41676965 -261.88052954 892.1835665 -274.22120223 892.95289236 C-279.85880467 893.30432094 -285.49644188 893.65516344 -291.13418198 894.00437737 C-296.29627268 894.32415151 -301.45825101 894.64568037 -306.62014558 894.96860469 C-308.48590553 895.08502313 -310.35170499 895.20081026 -312.21754757 895.31589668 C-314.75799332 895.47269235 -317.29828281 895.6318229 -319.83854771 895.79151821 C-320.55882352 895.83541722 -321.27909934 895.87931622 -322.0212017 895.9245455 C-327.47407269 896.27108059 -332.90239896 896.79641236 -338.33605576 897.36746979 C-338.53221705 830.90683773 -338.7070502 764.44615987 -338.76987839 697.98525238 C-338.77081562 697.00017251 -338.77175285 696.01509264 -338.77271849 695.00016186 C-338.79296498 673.58700095 -338.80942322 652.17383869 -338.82198409 630.76067192 C-338.82816779 620.25826616 -338.8351878 609.75586104 -338.84264755 599.25345612 C-338.84337561 598.20839159 -338.84410368 597.16332707 -338.8448538 596.08659393 C-338.86880496 562.26879408 -338.94788192 528.45139882 -339.05582716 494.63377149 C-339.16654681 459.85510055 -339.22109108 425.07677653 -339.20587449 390.29792199 C-339.2037467 385.37534397 -339.20225498 380.45276595 -339.20115089 375.53018761 C-339.20091393 374.56144093 -339.20067698 373.59269425 -339.20043284 372.59459161 C-339.1982631 357.05769531 -339.25456562 341.5215458 -339.33324299 325.98487163 C-339.41125126 310.33026392 -339.42644917 294.6765609 -339.37940938 279.0218218 C-339.35565872 270.55331646 -339.35868184 262.08699684 -339.43992424 253.61878967 C-340.02924929 189.46223442 -340.02924929 189.46223442 -322.2273072 165.02264774 C-319.80666986 161.62425092 -318.06373009 158.15606602 -316.33605576 154.36746979 C-338.3587713 154.36746979 -360.35449993 156.02166025 -382.33605576 157.36746979 C-382.33605576 417.73746979 -382.33605576 678.10746979 -382.33605576 946.36746979 C-367.31124115 945.65461978 -367.31124115 945.65461978 -352.30854607 944.68219662 C-351.04686529 944.58929367 -351.04686529 944.58929367 -349.75969601 944.4945139 C-347.01854772 944.29210662 -344.27766367 944.08633825 -341.53676987 943.88051605 C-339.52072411 943.73095202 -337.50466237 943.58160337 -335.48858631 943.43244845 C-330.008075 943.02638904 -324.52778755 942.61737782 -319.04753399 942.20785654 C-313.11449781 941.76504933 -307.18125134 941.32507682 -301.2480278 940.88478851 C-290.98489647 940.12285044 -280.72188782 939.35927818 -270.45895386 938.59468651 C-254.91909681 937.43701457 -239.37893199 936.28350855 -223.83870267 935.13084603 C-217.58900352 934.66727072 -211.33931403 934.20356515 -205.0896244 933.73986149 C-204.04845261 933.6626114 -204.04845261 933.6626114 -202.98624704 933.58380071 C-186.49991274 932.36056841 -170.01367174 931.13608093 -153.52746201 929.91117096 C-152.44671195 929.83087378 -152.44671195 929.83087378 -151.34412855 929.74895444 C-134.52478398 928.49930469 -117.70549006 927.24897591 -100.88628769 925.99741364 C-100.16214796 925.94352885 -99.43800824 925.88964407 -98.69192488 925.83412641 C-95.03993519 925.56237244 -91.38794594 925.29061258 -87.73595677 925.01885153 C-86.65317673 924.93827716 -86.65317673 924.93827716 -85.54852234 924.85607503 C-84.09152772 924.74765349 -82.63453315 924.63923121 -81.17753864 924.53080817 C-57.08814266 922.73820426 -32.99848855 920.94910281 -8.90854455 919.16387816 C-5.5050946 918.91165526 -2.10164812 918.65938552 1.30179596 918.40708351 C1.97151631 918.35743659 2.64123667 918.30778968 3.33125158 918.25663831 C13.42257488 917.50845053 23.5136598 916.7571027 33.60461426 916.00395775 C45.07942727 915.14752799 56.5544829 914.29445072 68.02987723 913.44584411 C73.88092062 913.01303703 79.73182645 912.57854942 85.582407 912.13952637 C90.94331111 911.7372805 96.3045494 911.33983696 101.66608669 910.94612331 C103.59991054 910.80327615 105.53360761 910.65869908 107.46715556 910.5121647 C138.39432466 908.1713694 138.39432466 908.1713694 151.53894424 915.30496979 C153.90255624 916.51091103 156.26832618 917.70999008 158.64050674 918.89871979 C159.81645401 919.49039948 160.99240128 920.08207916 162.20398331 920.69168854 C178.20941715 928.44368528 195.3538044 933.49784091 212.66394424 937.36746979 C213.42320206 937.54536041 214.18245987 937.72325104 214.96472549 937.90653229 C236.33219226 942.75752474 262.41478276 942.7572849 283.66394424 937.36746979 C284.44849991 937.1794278 285.23305557 936.9913858 286.04138565 936.79764557 C308.44592499 931.33450184 331.40921839 922.20395369 350.66394424 909.36746979 C362.00043401 908.31500603 373.8204336 909.90730622 385.13721085 910.77213287 C387.19088534 910.92519526 389.2445941 911.07779859 391.29833364 911.22998571 C396.91065557 911.64718716 402.52247517 912.07082905 408.13423157 912.49556041 C414.19794993 912.95334293 420.26211944 913.40507454 426.32623672 913.85753632 C436.82372699 914.64159252 447.32093358 915.42936573 457.8179512 916.21971893 C468.82539734 917.04847492 479.83301714 917.87486599 490.8408699 918.69820404 C491.86956225 918.77514629 491.86956225 918.77514629 492.91903627 918.85364292 C496.40230559 919.11416275 499.8855784 919.37463588 503.36885279 919.63508791 C528.01439017 921.4779419 552.65958994 923.32527412 577.30456924 925.17557526 C578.79331069 925.28734586 580.28205215 925.39911631 581.77079362 925.51088661 C582.50843174 925.56626636 583.24606986 925.62164611 584.00606065 925.67870404 C587.73813148 925.95889602 591.47020268 926.23908308 595.20227432 926.51926422 C595.94235852 926.57482553 596.68244271 926.63038684 597.4449537 926.68763182 C614.65197536 927.97940676 631.85911344 929.26962775 649.06628799 930.55936432 C649.80379998 930.61464439 650.54131197 930.66992446 651.3011728 930.72687968 C668.13717986 931.98880855 684.97322983 933.25016324 701.80935287 934.51054382 C702.51672921 934.56349989 703.22410554 934.61645595 703.95291751 934.67101674 C710.31562721 935.14734258 716.67833806 935.62365307 723.04105729 936.09985167 C739.58845359 937.33829703 756.13571202 938.57855052 772.682733 939.8220011 C783.0538299 940.60131348 793.42504039 941.37910417 803.79633719 942.15575206 C809.78395365 942.60419988 815.77151026 943.05341367 821.75892258 943.50457954 C827.23578885 943.91726929 832.71280325 944.3279304 838.18994397 944.73696119 C840.17487334 944.88556789 842.15974555 945.03494028 844.14455491 945.18514127 C846.83573663 945.38869294 849.52710911 945.58950651 852.21854782 945.78962708 C852.99453921 945.84898786 853.77053061 945.90834864 854.57003689 945.96950823 C858.62984199 946.26819889 862.5819529 946.36746979 866.66394424 946.36746979 C866.66394424 684.34746979 866.66394424 422.32746979 866.66394424 152.36746979 C864.26343687 151.1672161 862.53862157 151.1336793 859.85730362 150.97855377 C858.35302811 150.88857368 858.35302811 150.88857368 856.81836319 150.79677582 C855.17958206 150.70608574 855.17958206 150.70608574 853.50769424 150.61356354 C851.8113887 150.51580376 851.8113887 150.51580376 850.08081436 150.41606903 C847.67326496 150.27860731 845.26558496 150.14341754 842.8577919 150.01029205 C839.23414414 149.80887184 835.61117792 149.59751019 831.98816299 149.38504791 C819.19918325 148.65467417 806.47400406 148.14954717 793.66394424 148.36746979 Z M-69.93951035 727.11423492 C-72.46875375 727.38149154 -74.999087 727.63558328 -77.52990341 727.88748932 C-120.49654935 732.19463358 -163.10300242 738.95722162 -205.44152451 747.42020416 C-208.49991563 748.02837656 -211.55161288 748.56619635 -214.63683701 749.01786041 C-215.87820419 749.22088776 -217.11957138 749.4239151 -218.39855576 749.63309479 C-219.44140732 749.78037018 -220.48425888 749.92764557 -221.55871201 750.07938385 C-225.81189227 752.05193827 -227.22083011 755.31140798 -229.33605576 759.36746979 C-229.93454834 760.49896957 -229.93454834 760.49896957 -230.54513168 761.65332794 C-231.82156423 764.12361482 -233.05738493 766.61099751 -234.28527451 769.10575104 C-234.74279602 770.02599564 -235.20031754 770.94624023 -235.67170334 771.89437103 C-237.12618651 774.82100466 -238.57528628 777.75025696 -240.02355576 780.67996979 C-241.92041033 784.51083416 -243.81999689 788.3403251 -245.72277451 792.16825104 C-246.19293991 793.11417114 -246.66310532 794.06009125 -247.14751816 795.0346756 C-250.57910231 801.91241272 -254.12552378 808.72261483 -257.72785568 815.51213837 C-262.03305909 823.64254031 -266.12810016 831.87382328 -270.21105576 840.11746979 C-271.66437159 843.05096734 -273.12052029 845.98303523 -274.57824326 848.91434479 C-274.89808182 849.56232025 -275.21792038 850.21029572 -275.54745102 850.8779068 C-277.12675686 854.05346859 -278.77376146 857.14991565 -280.57091904 860.2082901 C-282.49864271 863.05531943 -282.49864271 863.05531943 -282.33605576 865.36746979 C-272.37961075 865.59422635 -262.55154571 864.87859658 -252.64014816 864.06996918 C-250.86384812 863.92860418 -249.08751443 863.78766139 -247.31115049 863.64710146 C-242.45629498 863.26175413 -237.60192773 862.87053989 -232.74762094 862.47834909 C-227.5025666 862.05565522 -222.25707108 861.63850493 -217.01162338 861.22072601 C-207.9312044 860.49680918 -198.85105531 859.76958435 -189.77107048 859.04024315 C-176.63772255 857.98544659 -163.50385637 856.93721961 -150.36983459 855.89085061 C-129.0519271 854.19243391 -107.7342774 852.49080648 -86.4168663 850.78617096 C-85.14199014 850.68422775 -83.86711397 850.58228453 -82.55360519 850.47725213 C-68.3183498 849.33888698 -54.08315361 848.19978375 -39.84801865 847.05991364 C-34.67956246 846.6460644 -29.51110553 846.23222435 -24.34264755 845.81839752 C-23.06720615 845.71627427 -21.79176474 845.61415102 -20.4776736 845.50893312 C0.76995728 843.80780843 22.01801264 842.11204992 43.26640803 840.42050177 C56.37286919 839.37688397 69.47893996 838.32858715 82.58454794 837.27430833 C91.5551463 836.55300593 100.52612978 835.83663746 109.49743616 835.12419551 C114.67703907 834.71269483 119.85643085 834.29887937 125.03536415 833.87902832 C129.7723879 833.49504222 134.50987236 833.11739972 139.24781091 832.74487609 C140.96508687 832.60870479 142.68217652 832.47015965 144.3990538 832.32905065 C146.72637241 832.13810694 149.05420654 831.95567934 151.38237286 831.77541256 C152.67716956 831.67174891 153.97196626 831.56808526 155.30599922 831.46128029 C159.94052766 831.33180603 162.59172624 831.3911412 166.06628799 834.55496979 C167.32119034 835.94715729 167.32119034 835.94715729 168.60144424 837.36746979 C182.91667429 852.45011423 203.69129994 860.83715085 223.66394424 865.36746979 C224.65394424 865.36746979 225.64394424 865.36746979 226.66394424 865.36746979 C226.18571465 857.17041485 225.05230135 849.40323153 223.10144424 841.42996979 C222.8382338 840.3523941 222.57502335 839.27481842 222.30383682 838.16458893 C213.39638557 803.07908519 194.78532548 772.99574847 163.43201065 754.01639557 C123.06387732 730.29046326 72.57566481 724.29614769 26.45300674 724.16434479 C24.92720892 724.15732324 23.4014114 724.15023642 21.87561417 724.14308929 C17.01338667 724.12364816 12.15120668 724.11865346 7.28894424 724.11746979 C6.04476353 724.116807 6.04476353 724.116807 4.77544785 724.11613083 C-20.23116133 724.10914543 -45.05046658 724.458066 -69.93951035 727.11423492 Z M321.66394424 753.36746979 C320.58370987 753.94368073 319.50347549 754.51989166 318.39050674 755.11356354 C311.14582381 759.14563001 304.91288064 763.93882151 298.66394424 769.36746979 C297.83120987 770.0545401 296.99847549 770.74161041 296.14050674 771.44950104 C273.37782713 790.80136904 261.09133233 819.76010368 258.41150284 849.13455963 C258.01289465 854.54288317 257.78785477 859.94638446 257.66394424 865.36746979 C282.00591137 864.2083285 305.95703563 851.76096369 322.66394424 834.36746979 C323.36006204 833.0492732 324.03204855 831.71762906 324.66394424 830.36746979 C326.04095343 830.47855819 326.04095343 830.47855819 327.44578099 830.59189081 C381.85761895 834.98140896 436.26986371 839.36585471 490.68263014 843.74384925 C497.2164435 844.26955742 503.7502535 844.79530734 510.28406143 845.32108307 C511.58482175 845.42575459 512.88558206 845.5304261 514.22575936 845.63826948 C535.28581155 847.33306131 556.34558975 849.03123491 577.40526858 850.73065907 C599.01539867 852.47442645 620.62581933 854.21455787 642.23651385 855.95131636 C655.57078068 857.02304925 668.90481295 858.09761547 682.23855886 859.17581022 C691.3827624 859.91495629 700.52724586 860.65056952 709.67195669 861.38341248 C714.94743757 861.80628611 720.22278162 862.23070935 725.49779892 862.65933037 C730.3314065 863.05205002 735.16535122 863.44031125 739.99959669 863.82509679 C741.74421341 863.96474055 743.4887025 864.10599069 745.23304239 864.24905092 C754.38769241 864.9989285 763.46925256 865.58305153 772.66394424 865.36746979 C766.66495627 853.30309604 760.56112732 841.29442792 754.41394424 829.30496979 C753.71913452 827.94894653 753.71913452 827.94894653 753.01028824 826.56552887 C744.57204522 810.09364216 744.57204522 810.09364216 736.00452042 793.68875885 C733.49843163 788.92867039 731.04414853 784.14690032 728.6432991 779.33304596 C727.20323589 776.44897577 725.7514182 773.57088805 724.2991066 770.69297028 C723.59034513 769.28028682 722.88724616 767.86474658 722.19015884 766.44626617 C721.21774067 764.4685173 720.22622833 762.50145439 719.23035049 760.53543854 C718.66259903 759.39357086 718.09484756 758.25170319 717.50989151 757.07523346 C713.97384617 751.88831653 707.84285665 751.64890216 702.01941299 750.48465729 C701.1589537 750.3094606 700.29849442 750.13426392 699.4119606 749.95375824 C696.55978558 749.37646026 693.70591331 748.80831108 690.85144424 748.24246979 C689.86054794 748.04527344 688.86965164 747.84807709 687.84872818 747.64490509 C638.04202602 737.76860328 587.92456589 730.4614046 537.33191299 726.12918854 C536.23912285 726.03431404 536.23912285 726.03431404 535.12425613 725.93752289 C521.61477859 724.81509712 508.15289633 724.2011645 494.59753799 724.16434479 C493.50586665 724.16010372 493.50586665 724.16010372 492.39214134 724.15577698 C488.5296953 724.14094702 484.66728496 724.13161965 480.80481339 724.12723541 C477.69596775 724.12288602 474.58740516 724.10910861 471.47864151 724.08621979 C420.26964401 723.71740554 367.45014808 728.61986372 321.66394424 753.36746979 Z " fill="#FFFFFF" transform="translate(1257.3360557556152,1009.6325302124023)"/>
</svg>
