<?xml version="1.0" encoding="UTF-8"?>
<svg version="1.1" xmlns="http://www.w3.org/2000/svg" width="3800" height="3800">
<path d="M0 0 C3.41424283 -0.00693634 6.82844196 -0.01858601 10.24266815 -0.03116226 C34.53342488 -0.10829522 58.73276037 0.26691855 82.98296356 1.74682236 C83.98890375 1.80800373 84.99484394 1.8691851 86.03126717 1.93222046 C166.34402752 6.93407683 251.36650695 19.47958105 323.32329559 57.40404892 C325.22840016 58.39605009 327.1498313 59.34867715 329.07671356 60.29760361 C358.09559486 74.81578173 383.57343434 95.64825474 407.17436981 117.68041611 C407.86852997 118.32599472 408.56269012 118.97157333 409.27788544 119.63671494 C413.29099798 123.4225147 417.01131168 127.35147513 420.60210419 131.53954697 C422.64652276 133.9169772 424.78614537 136.19985473 426.92436981 138.49291611 C432.70447745 144.84755251 437.98108819 151.52923832 443.17436981 158.36791611 C443.99493866 159.44371933 443.99493866 159.44371933 444.83208466 160.54125595 C456.33894564 175.6876776 466.4318459 191.45585769 475.92436981 207.93041611 C476.45046844 208.84162216 476.97656708 209.75282822 477.51860809 210.69164658 C478.23766327 211.95645859 478.23766327 211.95645859 478.97124481 213.24682236 C479.39760223 213.9952037 479.82395966 214.74358505 480.263237 215.51464462 C481.17436981 217.36791611 481.17436981 217.36791611 481.17436981 219.36791611 C481.83436981 219.36791611 482.49436981 219.36791611 483.17436981 219.36791611 C483.425737 218.53389267 483.67710419 217.69986923 483.93608856 216.84057236 C485.31389803 212.97662089 487.06051867 209.41539814 488.98686981 205.80541611 C489.57129852 204.7099144 489.57129852 204.7099144 490.16753387 203.59228134 C501.20365292 183.23188123 514.1899273 164.02722444 529.17436981 146.36791611 C529.96972137 145.38822861 530.76507294 144.40854111 531.58452606 143.39916611 C538.19003551 135.35390025 545.40005845 127.92793617 552.73686981 120.55541611 C553.21956329 120.06754623 553.70225677 119.57967636 554.19957733 119.07702255 C560.84222129 112.37827851 567.76756678 106.21462336 575.17436981 100.36791611 C576.40123844 99.37871233 577.62784599 98.38918456 578.85405731 97.39916611 C586.40488768 91.38934501 594.09389092 85.65453613 602.17436981 80.36791611 C602.89382782 79.89660263 603.61328583 79.42528915 604.35454559 78.93969345 C678.57548129 30.75687162 767.17840716 12.9551007 942.27983856 0.16479111 C943.3433938 0.16196373 944.40694904 0.15913635 945.50273323 0.1562233 C951.15719712 0.14135845 956.81163644 0.13205516 962.46611786 0.12768173 C967.01144918 0.12334772 971.55658525 0.10963665 976.10186005 0.08666611 C1008.90228313 -0.07548468 1041.45985652 0.96365447 1074.17436981 3.36791611 C1074.91897335 3.42236389 1075.66357689 3.47681168 1076.43074417 3.53290939 C1084.43961221 4.12356853 1092.43333901 4.82355298 1100.42436981 5.61791611 C1101.48216644 5.72051743 1102.53996307 5.82311874 1103.62981415 5.92882919 C1204.80011128 15.77824787 1305.0130936 34.63801569 1420.17436981 62.36791611 C1421.88526794 62.78548172 1421.88526794 62.78548172 1423.63072968 63.211483 C1431.544826 65.14456377 1439.45464623 67.09442706 1447.36186981 69.05541611 C1448.40135773 69.31212082 1449.44084564 69.56882553 1450.51183319 69.83330917 C1453.41500636 70.55184497 1456.31643031 71.27701627 1459.21733856 72.00463486 C1460.07179062 72.21548218 1460.92624268 72.4263295 1461.80658722 72.64356613 C1462.59206436 72.84223785 1463.3775415 73.04090958 1464.18682098 73.24560165 C1464.86476212 73.41512848 1465.54270325 73.5846553 1466.24118805 73.75931931 C1469.84500926 74.89386035 1471.75878442 75.72488113 1473.84673309 78.95556259 C1474.39055634 80.03910019 1474.93437958 81.12263779 1475.49468231 82.23900986 C1475.94479424 83.1227755 1475.94479424 83.1227755 1476.40399933 84.02439499 C1477.3799466 85.94614062 1478.33946539 87.87561477 1479.29936981 89.80541611 C1479.97427792 91.14021124 1480.6504747 92.47435553 1481.32793427 93.80785751 C1482.67172514 96.45469451 1484.01062106 99.10391043 1485.34575653 101.75512314 C1487.62959049 106.28020585 1489.98570388 110.76574525 1492.36186981 115.24291611 C1495.98846642 122.10630673 1499.58728457 128.98379421 1503.17436981 135.86791611 C1506.8047893 142.83445888 1510.44669179 149.79459817 1514.11186981 156.74291611 C1518.56107588 165.17907306 1522.95999773 173.64099573 1527.35552216 182.10522079 C1529.82944894 186.86663772 1532.30573274 191.62664854 1534.80327606 196.37572861 C1535.20804169 197.14795761 1535.61280731 197.92018661 1536.02983856 198.7158165 C1536.83089645 200.22703554 1537.64464238 201.73160063 1538.47124481 203.22900009 C1541.35171161 208.50436604 1543.57271009 213.82156704 1545.57061005 219.49267197 C1547.87137718 224.42448837 1551.14316172 228.84816833 1554.17436981 233.36791611 C1633.74253847 239.48854447 1713.49748556 242.87907756 1793.17436981 247.36791611 C1793.17436981 811.99791611 1793.17436981 1376.62791611 1793.17436981 1958.36791611 C1777.42438163 1958.36791611 1777.42438163 1958.36791611 1770.73600423 1957.8613658 C1769.99253639 1957.80650604 1769.24906855 1957.75164628 1768.48307137 1957.6951241 C1766.03292606 1957.51307162 1763.58341284 1957.32364015 1761.13383293 1957.13414383 C1759.33559789 1956.9989679 1757.53732804 1956.86425435 1755.73902714 1956.7299574 C1750.81089015 1956.36058887 1745.88326941 1955.98469807 1740.95570957 1955.60771874 C1735.58969507 1955.19837416 1730.22321826 1954.79517437 1724.85679781 1954.39119291 C1715.45591437 1953.68265621 1706.05533167 1952.97023434 1696.65493584 1952.25525856 C1682.67629431 1951.19209412 1668.69719913 1950.13498967 1654.71800183 1949.07916112 C1631.19862845 1947.30262286 1607.67961814 1945.52132281 1584.16080093 1943.7374382 C1560.86701022 1941.97064847 1537.57302595 1940.20644139 1514.27878952 1938.44553757 C1513.5547754 1938.39080582 1512.83076127 1938.33607408 1512.08480733 1938.2796838 C1503.99463167 1937.668114 1495.90445004 1937.05662331 1487.81426604 1936.44516391 C1472.85192191 1935.31430003 1457.88960433 1934.18308501 1442.92729378 1933.05177689 C1442.17871551 1932.99517695 1441.43013724 1932.93857701 1440.65887478 1932.88026193 C1405.04334602 1930.18735588 1369.4280641 1927.49119139 1333.81283412 1924.79433714 C1331.45014447 1924.61542983 1329.08745471 1924.43652395 1326.72476493 1924.25761842 C1312.50544028 1923.18091365 1298.28611818 1922.10417524 1284.06679877 1921.02740136 C1250.04467848 1918.45103859 1216.02253707 1915.87495485 1182.0003662 1913.29925998 C1179.63787792 1913.12040426 1177.27538976 1912.94154701 1174.91290161 1912.76268958 C1139.32466003 1910.06841265 1103.73635356 1907.37499631 1068.14785957 1904.68405533 C1067.39985913 1904.62749657 1066.65185869 1904.57093781 1065.88119157 1904.51266515 C1050.93664549 1903.38266232 1035.99209097 1902.25277107 1021.04751757 1901.1231296 C1012.96578039 1900.51223988 1004.88404727 1899.90129647 996.80231857 1899.29029465 C996.07931047 1899.2356336 995.35630237 1899.18097256 994.61138493 1899.12465513 C970.60354531 1897.30957292 946.5959858 1895.49081287 922.5885585 1893.67028596 C899.20708434 1891.89724176 875.82537874 1890.12728003 852.44343017 1888.3605026 C838.54617221 1887.31029229 824.64911418 1886.25751379 810.75232452 1885.20112438 C801.47436072 1884.49608749 792.19615472 1883.79430184 782.91774396 1883.09517162 C777.62837447 1882.69651923 772.33912474 1882.29642586 767.05016677 1881.89234728 C762.23727194 1881.52466568 757.42408116 1881.16114926 752.61062232 1880.80092867 C750.88163557 1880.67080701 749.15276149 1880.53917702 747.42401986 1880.40583841 C730.17153009 1878.08892767 730.17153009 1878.08892767 713.93999481 1882.04369736 C712.88473602 1882.6186998 711.82947723 1883.19370224 710.74224091 1883.786129 C709.64734344 1884.41124374 708.55244598 1885.03635849 707.42436981 1885.68041611 C705.63602694 1886.65844611 703.84208154 1887.6255847 702.04738617 1888.59189987 C700.83504057 1889.24472874 699.62403718 1889.90005635 698.41439056 1890.55787277 C610.34488206 1938.34112739 508.39740917 1953.88981432 365.34502411 1922.12011337 C327.27569025 1910.74214812 288.76470542 1897.16308391 253.17436981 1879.36791611 C244.20617457 1878.91080533 235.2314096 1879.59993913 226.29326439 1880.28870678 C224.93644985 1880.38970962 223.57960358 1880.4902869 222.22272921 1880.59048262 C218.51411652 1880.86556288 214.80597889 1881.14662977 211.09789402 1881.42872381 C207.05236357 1881.73540011 203.00641041 1882.03640516 198.96050942 1882.33814627 C191.87018357 1882.86771744 184.78013457 1883.40087515 177.69025612 1883.93640137 C167.13579391 1884.73360371 156.58091775 1885.52521831 146.02595088 1886.31570738 C128.21073132 1887.65009438 110.39585433 1888.98900396 92.58116531 1890.33045387 C74.79611043 1891.66965472 57.01090153 1893.00678176 39.22549057 1894.34124565 C38.11281871 1894.42473203 37.00014686 1894.50821841 35.85375767 1894.59423468 C30.19700621 1895.01866322 24.54025203 1895.44305533 18.88349678 1895.86743326 C-21.30108628 1898.88220244 -61.48533212 1901.901445 -101.66938019 1904.92333603 C-140.14025163 1907.81638193 -178.61125486 1910.70766395 -217.08246613 1913.59618759 C-218.83810556 1913.72800637 -218.83810556 1913.72800637 -220.62921246 1913.86248816 C-232.40855515 1914.74691267 -244.18790126 1915.6312917 -255.96724951 1916.5156423 C-279.26054667 1918.26442151 -302.55381647 1920.01356495 -325.84708535 1921.76272088 C-329.30333599 1922.02226015 -332.75958671 1922.2817984 -336.21583745 1922.54133637 C-348.79914572 1923.4862471 -361.38245326 1924.43116752 -373.96576003 1925.37609837 C-380.79585162 1925.88899691 -387.62594368 1926.40188928 -394.45603609 1926.91477704 C-424.43723222 1929.16613884 -454.41840925 1931.41775476 -484.399553 1933.6698139 C-488.67300523 1933.99081773 -492.94645822 1934.3118116 -497.21991187 1934.6327965 C-547.56124781 1938.41402011 -597.90215977 1942.20075011 -648.24202349 1946.00152499 C-658.98806088 1946.81285865 -669.73416665 1947.62328029 -680.48034477 1948.43274784 C-681.15476046 1948.48355043 -681.82917616 1948.53435303 -682.52402869 1948.58669509 C-689.73014756 1949.12950732 -696.93628032 1949.67213505 -704.14242399 1950.21461803 C-717.30913649 1951.20600173 -730.47560391 1952.20051856 -743.64172414 1953.19973801 C-752.1472285 1953.84501566 -760.65299544 1954.48674269 -769.1590012 1955.12537701 C-774.75281349 1955.54550921 -780.34629667 1955.96966652 -785.93952779 1956.3974628 C-789.25405902 1956.6498559 -792.5689061 1956.89787738 -795.88386653 1957.14456315 C-797.36984153 1957.25598604 -798.85568808 1957.36914047 -800.34137596 1957.48432838 C-802.35946542 1957.64054852 -804.37811084 1957.78953435 -806.39676476 1957.93828297 C-807.50340253 1958.02200344 -808.6100403 1958.10572392 -809.75021255 1958.19198138 C-815.77003043 1958.45185537 -821.80020558 1958.36791611 -827.82563019 1958.36791611 C-827.82563019 1398.02791611 -827.82563019 837.68791611 -827.82563019 260.36791611 C-617.82563019 248.36791611 -617.82563019 248.36791611 -599.82563019 248.36791611 C-598.83563019 245.39791611 -598.83563019 245.39791611 -597.82563019 242.36791611 C-597.23349849 241.09686938 -596.60569538 239.84150704 -595.93500519 238.61010361 C-595.56246613 237.91658798 -595.18992706 237.22307236 -594.80609894 236.50854111 C-594.40004425 235.76088486 -593.99398956 235.01322861 -593.57563019 234.24291611 C-589.17702097 226.02342545 -584.97206562 217.71706202 -580.82563019 209.36791611 C-576.5391498 200.74421928 -572.18265515 192.16793295 -567.65375519 183.66869736 C-563.92214072 176.62951552 -560.37248031 169.50131989 -556.82563019 162.36791611 C-552.53804672 153.74475384 -548.18267054 145.16796183 -543.65375519 136.66869736 C-539.92213453 129.62950384 -536.37286145 122.50113907 -532.82563019 115.36791611 C-528.69149743 107.0574542 -524.52761906 98.76746053 -520.20063019 90.55541611 C-519.61668488 89.44650009 -519.61668488 89.44650009 -519.02094269 88.31518173 C-517.96618847 86.32637581 -516.90904012 84.34128633 -515.82563019 82.36791611 C-515.02923126 80.60327011 -515.02923126 80.60327011 -514.21674347 78.8029747 C-512.07946852 75.11321115 -509.92500141 74.18166725 -505.89044952 73.1026268 C-505.09562164 72.92075821 -504.30079376 72.73888962 -503.48188019 72.55150986 C-502.20601044 72.22432465 -502.20601044 72.22432465 -500.90436554 71.89052963 C-498.0510389 71.16725029 -495.18940706 70.48604456 -492.32563019 69.80541611 C-490.27177806 69.29679901 -488.21840331 68.78625087 -486.16547394 68.27392197 C-480.56744958 66.88728251 -474.96030505 65.54174837 -469.34955597 64.20763779 C-465.82294881 63.36727716 -462.29866316 62.5177577 -458.77484894 61.66576767 C-354.69609176 36.54536614 -249.28219476 16.88219547 -108.07099152 3.61791611 C-104.9694448 3.37899458 -101.86921576 3.12723944 -98.76898956 2.87182236 C-65.8825554 0.20801119 -32.97466499 0.05616002 0 0 Z M-86.82563019 64.36791611 C-89.17538852 64.54144293 -91.525161 64.71477831 -93.87494659 64.88793564 C-197.8708683 72.65688938 -300.61531035 89.91991864 -402.16156769 113.38744736 C-403.14631073 113.61424683 -404.13105377 113.8410463 -405.14563751 114.07471848 C-415.07269337 116.38361717 -424.93313075 118.89479125 -434.82563019 121.36791611 C-434.82563019 554.65791611 -434.82563019 987.94791611 -434.82563019 1434.36791611 C-425.97111778 1433.59261971 -425.97111778 1433.59261971 -417.26190948 1432.32738876 C-416.08442139 1432.12229187 -414.90693329 1431.91719498 -413.69376373 1431.70588303 C-412.44177185 1431.48349457 -411.18977997 1431.26110611 -409.89984894 1431.03197861 C-408.5394349 1430.79409187 -407.17892789 1430.55673635 -405.81833649 1430.31986618 C-402.90749569 1429.81275047 -399.99701153 1429.30365573 -397.0867691 1428.79311752 C-324.12388477 1416.00921132 -250.95509118 1404.94365479 -102.42182159 1389.77367783 C-98.71127934 1389.50910621 -95.00330171 1389.22392043 -91.29584503 1388.91918564 C-28.53470307 1383.79441785 36.4747897 1383.3511579 99.17436981 1389.36791611 C101.0500043 1389.54143495 102.92565576 1389.71477053 104.80132294 1389.88793564 C144.71649228 1393.63356609 184.21756422 1399.87577759 223.17436981 1409.36791611 C224.45489227 1409.67809677 225.73541473 1409.98827744 227.05474091 1410.30785751 C296.52290655 1427.38367985 363.16307783 1457.13335447 418.17436981 1503.36791611 C419.21323527 1504.21971898 420.25230762 1505.07126956 421.29155731 1505.92260361 C429.69104938 1512.88629558 437.4004453 1520.43524618 445.04155731 1528.22094345 C445.82401825 1529.01710068 446.60647919 1529.8132579 447.41265106 1530.63354111 C448.11430389 1531.35316025 448.81595673 1532.07277939 449.53887177 1532.81420517 C450.91922805 1534.48270721 450.91922805 1534.48270721 452.17436981 1534.36791611 C452.18536726 1499.04125607 452.19591096 1463.71459591 452.20610809 1428.38793564 C452.20640749 1427.35093221 452.20640749 1427.35093221 452.20671293 1426.29297923 C452.228095 1352.18944937 452.24653922 1278.08591946 452.25905609 1203.98238754 C452.25933499 1202.33562358 452.2596139 1200.68885961 452.2598928 1199.04209564 C452.26573866 1164.47313563 452.27117204 1129.90417556 452.27612917 1095.3352154 C452.27861988 1077.96907939 452.28118983 1060.60294338 452.2838347 1043.23680739 C452.28423319 1040.6172548 452.28462943 1037.9977022 452.28502557 1035.3781496 C452.29114273 995.0592875 452.29895504 954.74042661 452.31169891 914.42156601 C452.31197271 913.55522631 452.31224651 912.68888662 452.3125286 911.79629421 C452.31695313 897.82907869 452.32152043 883.86186322 452.32610669 869.89464776 C452.33932062 829.64568055 452.35147205 789.39671429 452.3566494 749.14774513 C452.35675647 748.31936994 452.35686354 747.49099475 452.35697385 746.63751728 C452.35930584 728.44896855 452.36109534 710.26041982 452.36237178 692.07187098 C452.36289499 684.75247077 452.36349624 677.43307056 452.3641243 670.11367035 C452.36419115 669.31261353 452.36425801 668.51155671 452.36432689 667.68622545 C452.36651669 641.91226345 452.37504832 616.13830838 452.38693423 590.36434918 C452.39888655 564.38303525 452.40456204 538.40172803 452.40161779 512.42041128 C452.40121168 508.82293713 452.40087689 505.22546298 452.40058517 501.62798882 C452.40049553 500.5702584 452.40049553 500.5702584 452.40040408 499.49115969 C452.39964536 488.36455408 452.40558905 477.23796274 452.41438954 466.11136101 C452.42292212 455.1467975 452.424053 444.18224999 452.41803344 433.21768434 C452.41502507 427.36194572 452.41509752 421.5062544 452.42413618 415.65052094 C452.52833526 382.45765783 452.52833526 382.45765783 450.17436981 349.36791611 C450.09472245 348.6291165 450.01507509 347.8903169 449.93301417 347.12912942 C449.50630724 343.2369025 449.00432436 339.36525658 448.42436981 335.49291611 C448.25518036 334.34838974 448.08599091 333.20386337 447.9116745 332.02465439 C438.24948428 269.13460813 413.59810391 210.65252698 368.17436981 165.36791611 C367.22627063 164.38757888 366.27972815 163.40573439 365.33452606 162.42260361 C358.35799684 155.22364742 351.11962771 148.77033362 343.07720184 142.78783798 C341.10504979 141.31618846 339.15412291 139.81875391 337.20171356 138.32104111 C268.77255577 86.61724258 178.33117889 68.72754628 94.45171356 62.74682236 C93.54726564 62.68229748 92.64281773 62.6177726 91.7109623 62.55129242 C69.59241755 61.01657543 47.49460044 60.89497575 25.33164978 60.98119354 C22.05023856 60.99314049 18.76884639 61.00008931 15.48741913 61.00600815 C-18.70442605 61.07737671 -52.72064621 61.76797897 -86.82563019 64.36791611 Z M762.17436981 80.36791611 C761.12201141 80.62653427 760.06965302 80.88515244 758.98540497 81.15160751 C704.3719459 94.78620907 651.39656694 117.07292722 607.17436981 152.36791611 C606.31327606 153.02404892 605.45218231 153.68018173 604.56499481 154.35619736 C590.39157119 165.41576276 577.60684632 178.73551562 567.17436981 193.36791611 C566.76847626 193.92946396 566.3625827 194.49101181 565.94438934 195.06957626 C523.78906417 253.92701129 512.94528531 330.06153606 513.05132198 400.80635738 C513.05058045 402.80509308 513.04939986 404.80382866 513.04782549 406.80256388 C513.04478026 412.26355429 513.04791159 417.72452585 513.05210362 423.18551484 C513.0555573 429.13834337 513.05316333 435.09117011 513.05152613 441.04399902 C513.04945778 451.46630871 513.051054 461.88861379 513.05516434 472.31092262 C513.05955207 483.48602738 513.06173581 494.6611294 513.06126213 505.83623505 C513.06123344 506.54370163 513.06120475 507.25116822 513.06117518 507.98007318 C513.0610188 511.58784348 513.06082685 515.19561378 513.06062235 518.80338408 C513.05921712 544.87521104 513.06263781 570.94703556 513.06863976 597.01886177 C513.07456725 622.82908452 513.07841585 648.63930622 513.07949257 674.44952965 C513.07952698 675.25183901 513.07956139 676.05414837 513.07959685 676.88077014 C513.07991006 684.20890028 513.08019775 691.53703042 513.08045482 698.86516057 C513.08109412 717.08002925 513.08205339 735.29489792 513.08323002 753.50976658 C513.08328334 754.33912477 513.08333665 755.16848296 513.08339159 756.02297322 C513.08601152 796.341812 513.09231843 836.66065008 513.09893036 876.97948837 C513.10122207 890.96663029 513.10349746 904.95377222 513.10570526 918.94091415 C513.10584221 919.80842775 513.10597916 920.67594135 513.10612026 921.56974325 C513.11246731 961.91732905 513.11619089 1002.26491498 513.11924006 1042.61250115 C513.11943812 1045.23270989 513.11963731 1047.85291863 513.11983674 1050.47312736 C513.12115655 1067.8377551 513.12243119 1085.20238283 513.12367559 1102.56701057 C513.12615193 1137.11670514 513.12889361 1171.66639969 513.13181764 1206.21609423 C513.13195688 1207.86134704 513.13209594 1209.50659986 513.1322348 1211.15185268 C513.13848587 1285.19351934 513.14782318 1359.2351855 513.15850067 1433.27685165 C513.15860061 1433.96997749 513.15870054 1434.66310333 513.15880351 1435.37723299 C513.16380371 1470.04079405 513.16898018 1504.7043551 513.17436981 1539.36791611 C514.29529779 1538.41310592 515.41537895 1537.45730152 516.53510284 1536.50107956 C517.15893891 1535.96892303 517.78277498 1535.43676649 518.42551517 1534.888484 C520.47153477 1533.10954157 522.39624835 1531.24381256 524.29546356 1529.30932236 C525.00380341 1528.59324814 525.71214325 1527.87717392 526.44194794 1527.13940048 C527.88469142 1525.67068501 529.32739995 1524.2019352 530.77007294 1522.73315048 C534.83479691 1518.62412434 538.98146675 1514.69829657 543.3635788 1510.9291954 C545.78876318 1508.83818096 548.13490217 1506.66565138 550.48686981 1504.49291611 C555.88937037 1499.57278167 561.46423235 1494.92533865 567.17436981 1490.36791611 C567.68806122 1489.95461044 568.20175262 1489.54130478 568.73101044 1489.1154747 C589.5249421 1472.40112637 611.39440527 1457.70725896 634.70513153 1444.74193954 C636.24355385 1443.8858746 637.77950072 1443.02532657 639.31157684 1442.15795517 C710.54504196 1401.88720975 796.77048707 1391.7660751 877.17436981 1387.36791611 C877.90683961 1387.32757342 878.63930941 1387.28723074 879.39397526 1387.24566555 C894.58548501 1386.42885405 909.74414025 1386.19172828 924.95561981 1386.16479111 C927.4015988 1386.15781565 929.84757759 1386.15077466 932.29355621 1386.14367294 C940.08716295 1386.12434857 947.88074174 1386.11949589 955.67436981 1386.11791611 C957.01313655 1386.11733933 958.35190329 1386.11674419 959.69067001 1386.11613083 C998.52982085 1386.10159208 1037.24297897 1386.33414848 1075.99797821 1389.14007187 C1079.22448845 1389.37151114 1082.45165129 1389.59025187 1085.67925262 1389.80590439 C1186.75423995 1396.61317809 1287.22711194 1411.38986543 1385.90068817 1434.32104111 C1386.78397293 1434.52603226 1387.66725769 1434.73102341 1388.57730865 1434.94222641 C1390.22389316 1435.32536052 1391.86997251 1435.71067448 1393.51544952 1436.09853745 C1397.30437012 1437.03326102 1397.30437012 1437.03326102 1401.17436981 1437.36791611 C1401.17436981 1002.42791611 1401.17436981 567.48791611 1401.17436981 119.36791611 C1369.22096077 112.25774565 1369.22096077 112.25774565 1337.17436981 105.61791611 C1335.93365723 105.37012405 1334.69294464 105.122332 1333.4146347 104.8670311 C1248.78917159 88.01875412 1163.39002722 74.51552692 974.97515106 61.16479111 C974.01193624 61.16196373 973.04872143 61.15913635 972.05631828 61.1562233 C966.94275282 61.14138674 961.82921435 61.13206388 956.71562958 61.12768173 C952.60062866 61.12333516 948.48584191 61.10956944 944.37090302 61.08666611 C883.09251704 60.75287584 821.81908687 65.6933493 762.17436981 80.36791611 Z M-498.82563019 189.36791611 C-506.24066263 202.24180801 -513.39623093 215.22816028 -520.32563019 228.36791611 C-525.6849454 238.52958379 -531.1595958 248.59839651 -536.87250519 258.56713486 C-541.53152272 266.74347999 -545.93602028 275.04513803 -550.32563019 283.36791611 C-555.6850732 293.52951492 -561.15959374 303.59839291 -566.87250519 313.56713486 C-571.531527 321.7434875 -575.93587688 330.04520722 -580.32563019 338.36791611 C-585.26560814 347.73279154 -590.2666013 357.04476468 -595.51313019 366.24291611 C-595.94162637 367.02493992 -596.37012256 367.80696374 -596.81160348 368.61268524 C-599.46272659 373.39900637 -602.18306031 377.94114722 -605.4453975 382.33689439 C-619.91173247 403.1604285 -617.77724192 426.54915759 -617.53735689 450.91963019 C-617.49388276 456.76848757 -617.51743768 462.61686683 -617.5385268 468.46579246 C-617.57979735 480.55556294 -617.55553718 492.64438066 -617.49450684 504.73403168 C-617.4330167 516.96898186 -617.4025131 529.20343981 -617.40913773 541.43854904 C-617.40953942 542.21391991 -617.40994111 542.98929077 -617.41035497 543.78815772 C-617.41254448 547.74240712 -617.41523175 551.69665602 -617.41809468 555.65090498 C-617.43775351 584.20603365 -617.38992922 612.76072505 -617.30585098 641.3157196 C-617.2228308 669.57912617 -617.16897867 697.8423454 -617.15391159 726.10587311 C-617.15342982 726.98484315 -617.15294806 727.86381319 -617.15245169 728.76941869 C-617.14806667 736.7978984 -617.14403903 744.82637825 -617.14044005 752.85485835 C-617.1314905 772.8094163 -617.11806123 792.76396989 -617.1015873 812.71852303 C-617.10084085 813.62703449 -617.10009441 814.53554595 -617.09932534 815.47158806 C-617.06265719 859.62508947 -616.97436503 903.77846734 -616.88178253 947.93188095 C-616.84969819 963.24690279 -616.81784261 978.56192505 -616.7869339 993.87694931 C-616.78501661 994.82683717 -616.78309932 995.77672503 -616.78112393 996.75539737 C-616.69224478 1040.94447709 -616.64012856 1085.13357807 -616.59744677 1129.32272375 C-616.59467389 1132.19284537 -616.59188518 1135.06296697 -616.58909326 1137.93308857 C-616.57061571 1156.95413584 -616.55277073 1175.97518367 -616.53534923 1194.99623194 C-616.5006816 1232.8407713 -616.4622982 1270.68530661 -616.42136057 1308.5298397 C-616.41941121 1310.33194167 -616.41746444 1312.13404366 -616.41552029 1313.93614564 C-616.32801936 1395.02365225 -616.19730128 1476.11106838 -616.04779816 1557.19848251 C-616.04569951 1558.33696802 -616.04569951 1558.33696802 -616.04355847 1559.49845324 C-615.97355745 1597.45494597 -615.90108714 1635.41143381 -615.82563019 1673.36791611 C-613.56928473 1670.41910483 -611.75896781 1667.52220918 -610.06000519 1664.21557236 C-609.51175079 1663.15257919 -608.9634964 1662.08958603 -608.39862823 1660.99438095 C-607.79087001 1659.80643984 -607.18320764 1658.61844969 -606.57563019 1657.43041611 C-605.92461144 1656.16416549 -605.27331636 1654.89805691 -604.62177277 1653.63207626 C-602.35017922 1649.21386454 -600.08759445 1644.7910635 -597.82563019 1640.36791611 C-597.17772522 1639.10144241 -597.17772522 1639.10144241 -596.51673126 1637.80938339 C-592.18041156 1629.33295313 -587.84678929 1620.85514634 -583.5167923 1612.37548447 C-577.57450251 1600.7390338 -571.61846994 1589.10985742 -565.63813019 1577.49291611 C-564.18366416 1574.66741532 -562.729214 1571.84190637 -561.27484894 1569.01635361 C-560.91433945 1568.31595963 -560.55382996 1567.61556564 -560.18239594 1566.8939476 C-555.76321033 1558.30634854 -551.35684684 1549.71217453 -546.95063019 1541.11791611 C-546.53497803 1540.30723679 -546.11932587 1539.49655746 -545.69107819 1538.6613121 C-542.73563431 1532.89699775 -539.7805811 1527.13248318 -536.82563019 1521.36791611 C-533.45090314 1514.78444282 -530.07598398 1508.20106809 -526.70063019 1501.61791611 C-526.0867897 1500.42067413 -526.0867897 1500.42067413 -525.4605484 1499.19924545 C-518.41669369 1485.46169821 -511.35993707 1471.73080934 -504.29584503 1458.00365829 C-503.75245232 1456.94762154 -503.75245232 1456.94762154 -503.19808197 1455.8702507 C-502.5230947 1454.55853716 -501.84800139 1453.24687819 -501.1727829 1451.93528366 C-498.40969174 1446.56594001 -497.68303837 1443.09969769 -497.70143169 1437.06601036 C-497.70015361 1436.19125347 -497.69887552 1435.31649658 -497.6975587 1434.4152319 C-497.69446425 1431.44560441 -497.69857801 1428.4760288 -497.70258236 1425.50640297 C-497.70184354 1423.36205426 -497.70066584 1421.21770566 -497.69908586 1419.0733574 C-497.69599745 1413.12881206 -497.69920792 1407.18428365 -497.703364 1401.23973956 C-497.70678175 1394.79228047 -497.70443055 1388.3448232 -497.70278651 1381.89736378 C-497.70053106 1370.5802366 -497.70233384 1359.26311425 -497.70642471 1347.9459877 C-497.71079669 1335.79782048 -497.71299801 1323.64965577 -497.71252251 1311.50148773 C-497.71249381 1310.73534465 -497.71246512 1309.96920157 -497.71243556 1309.17984204 C-497.71227919 1305.27355297 -497.71208724 1301.36726391 -497.71188272 1297.46097484 C-497.71047372 1269.15744122 -497.71391128 1240.85390983 -497.71990013 1212.55037689 C-497.72581856 1184.51277149 -497.72967441 1156.47516705 -497.73075294 1128.43756104 C-497.73078736 1127.5674644 -497.73082177 1126.69736777 -497.73085722 1125.80090458 C-497.73117041 1117.85414579 -497.73145811 1109.907387 -497.7317152 1101.96062822 C-497.73235467 1082.20410835 -497.73331404 1062.4475885 -497.73449039 1042.69106865 C-497.73454371 1041.79130794 -497.73459703 1040.89154722 -497.73465196 1039.96452104 C-497.73727475 996.17499481 -497.74358283 952.38546922 -497.75019073 908.59594345 C-497.75248235 893.39619573 -497.7547577 878.19644802 -497.75696564 862.99670029 C-497.75717106 861.58270401 -497.75717106 861.58270401 -497.75738063 860.14014215 C-497.76372237 816.3344526 -497.76744955 772.52876294 -497.77050043 728.72307305 C-497.7706985 725.87987415 -497.77089769 723.03667525 -497.77109711 720.19347635 C-497.77241687 701.35176529 -497.77369152 682.51005423 -497.77493597 663.66834316 C-497.7774126 626.17663258 -497.78015429 588.68492203 -497.78307802 551.19321148 C-497.78321726 549.40767774 -497.78335631 547.622144 -497.78349518 545.83661027 C-497.78974986 465.43542414 -497.7990883 385.03423848 -497.80976105 304.63305283 C-497.80991095 303.50356284 -497.80991095 303.50356284 -497.81006388 302.35125488 C-497.81506455 264.69014193 -497.82024109 227.029029 -497.82563019 189.36791611 C-498.15563019 189.36791611 -498.48563019 189.36791611 -498.82563019 189.36791611 Z M1462.17436981 194.36791611 C1462.10288764 232.51496531 1462.0343534 270.66201965 1461.96807098 308.80907822 C1461.96677361 309.55559697 1461.96547624 310.30211573 1461.96413956 311.07125626 C1461.8251666 391.08373542 1461.70527642 471.09621627 1461.623909 551.10877609 C1461.62209614 552.88668542 1461.62028327 554.66459476 1461.61847038 556.44250409 C1461.58047298 593.7637943 1461.54515595 631.08508666 1461.512934 668.4063823 C1461.49674425 687.15495612 1461.48003961 705.90352946 1461.46284807 724.65210239 C1461.46025783 727.48019997 1461.45768229 730.30829755 1461.45510737 733.13639514 C1461.41534194 776.66937396 1461.36455458 820.2023055 1461.28173065 863.73522568 C1461.27995097 864.67075379 1461.27817128 865.60628191 1461.27633767 866.57015936 C1461.24757794 881.65301012 1461.21789059 896.73585906 1461.18808009 911.81870777 C1461.10219875 955.27817211 1461.02321127 998.73759996 1460.9895525 1042.19714069 C1460.98885654 1043.09143532 1460.98816059 1043.98572994 1460.98744354 1044.9071244 C1460.97228626 1064.54221278 1460.96065425 1084.17730162 1460.95235703 1103.81239405 C1460.9489561 1111.71369439 1460.94504802 1119.61499447 1460.94096565 1127.51629448 C1460.9405311 1128.38104062 1460.94009655 1129.24578676 1460.93964882 1130.13673733 C1460.92541085 1157.96827225 1460.86994106 1185.7995364 1460.7927011 1213.63096213 C1460.71504079 1241.6821883 1460.67811205 1269.73315211 1460.69725797 1297.78448843 C1460.69989776 1301.66699819 1460.70207383 1305.54950809 1460.70396996 1309.43201828 C1460.7043584 1310.19305457 1460.70474685 1310.95409087 1460.70514707 1311.73818887 C1460.71008228 1323.75538229 1460.67141502 1335.77201802 1460.6142416 1347.78905972 C1460.5588312 1359.62606794 1460.55139146 1371.46229981 1460.59055624 1383.29937833 C1460.61013663 1389.62371951 1460.60954453 1395.94620986 1460.55088844 1402.27035057 C1459.6328224 1436.97983676 1459.6328224 1436.97983676 1473.49728934 1467.95127661 C1476.44636085 1472.20082981 1478.76097328 1476.80077195 1481.17436981 1481.36791611 C1482.16124147 1483.17148586 1483.15050556 1484.97375047 1484.14311981 1486.77416611 C1487.98006689 1493.80856909 1491.64162646 1500.93279537 1495.31890106 1508.05150986 C1498.8516922 1514.87257915 1502.47212855 1521.6374564 1506.17436981 1528.36791611 C1511.02857551 1537.19258029 1515.69666916 1546.10348373 1520.31890106 1555.05150986 C1523.8516922 1561.87257915 1527.47212855 1568.6374564 1531.17436981 1575.36791611 C1536.02857551 1584.19258029 1540.69666916 1593.10348373 1545.31890106 1602.05150986 C1549.31788067 1609.77269005 1553.44804303 1617.41273427 1557.6394577 1625.0307579 C1562.13087218 1633.22255719 1566.44396339 1641.50306073 1570.72319794 1649.80736923 C1573.77407484 1655.7196516 1576.90035087 1661.57597963 1580.17436981 1667.36791611 C1580.50436981 1667.36791611 1580.83436981 1667.36791611 1581.17436981 1667.36791611 C1581.27335 1629.26847879 1581.36824283 1591.16903158 1581.46001434 1553.06957626 C1581.4618107 1552.32395569 1581.46360706 1551.57833511 1581.46545785 1550.81011997 C1581.65792451 1470.87618083 1581.82391493 1390.94223846 1581.93654633 1311.00814438 C1581.93905644 1309.23149011 1581.94156656 1307.45483584 1581.94407671 1305.67818158 C1581.99669126 1268.38124824 1582.04559146 1231.08431077 1582.09020402 1193.78736702 C1582.11262018 1175.05035106 1582.13574966 1156.31333604 1582.15955376 1137.5763218 C1582.16314025 1134.75001055 1582.16670638 1131.92369927 1582.17027166 1129.097388 C1582.22531573 1085.60438669 1582.29560679 1042.11147614 1582.41033173 998.61858749 C1582.41402799 997.21714345 1582.41402799 997.21714345 1582.41779893 995.78738741 C1582.4576189 980.7249026 1582.49872491 965.66242129 1582.54000174 950.59994041 C1582.65895171 907.18630233 1582.76830573 863.77273449 1582.81488609 820.35894966 C1582.81584972 819.46513686 1582.81681336 818.57132405 1582.81780619 817.65042601 C1582.83879575 798.02343588 1582.85490043 778.3964449 1582.8663875 758.76944701 C1582.87109633 750.87077527 1582.87650754 742.97210404 1582.88216019 735.07343292 C1582.88276188 734.20898762 1582.88336356 733.34454233 1582.88398349 732.45390172 C1582.90368064 704.6561609 1582.98042655 676.8589409 1583.08744956 649.06140996 C1583.19510131 621.03216241 1583.24607814 593.00341894 1583.21960159 564.97395968 C1583.21594676 561.08990117 1583.21293364 557.2058424 1583.21030807 553.32178307 C1583.20977023 552.56047785 1583.20923238 551.79917263 1583.20867823 551.01479756 C1583.2018586 539.01836299 1583.25526066 527.02300364 1583.33454733 515.02686126 C1583.41148474 503.19510344 1583.42142297 491.36483425 1583.36734246 479.53294021 C1583.3403256 473.21712403 1583.34063874 466.90485634 1583.42226709 460.58943029 C1583.77323197 431.7550223 1581.69126232 410.33790279 1565.51192783 386.01357631 C1561.79330445 380.34884159 1558.76405045 374.29304217 1555.66332035 368.27606393 C1553.95486227 364.97964975 1552.20330773 361.70614857 1550.45561981 358.43041611 C1545.6395268 349.36668697 1540.83943618 340.29449744 1536.03911591 331.22240829 C1530.59404718 320.93233008 1525.13883619 310.64770576 1519.67436981 300.36791611 C1514.209423 290.08722265 1508.7537645 279.80167789 1503.30825043 269.51067734 C1499.93136942 263.12918567 1496.55320225 256.74837473 1493.17436981 250.36791611 C1492.80487213 249.67017075 1492.43537445 248.97242538 1492.05467987 248.25353622 C1482.51587244 230.24325882 1472.92445722 212.26498377 1463.17436981 194.36791611 C1462.84436981 194.36791611 1462.51436981 194.36791611 1462.17436981 194.36791611 Z M1583.17436981 293.36791611 C1586.59572427 300.58002576 1590.69187203 307.3191713 1594.86186981 314.11791611 C1595.61506097 315.35143078 1596.36790256 316.58515897 1597.12041473 317.81908798 C1598.68487205 320.38373557 1600.25082307 322.9474615 1601.8179245 325.51049423 C1605.19361749 331.03359674 1608.55399093 336.56599637 1611.91307831 342.09920883 C1612.98440288 343.86385267 1614.05619006 345.62821498 1615.12798309 347.39257431 C1619.8031468 355.09170912 1624.45461012 362.80473112 1629.07012177 370.53979111 C1629.49768768 371.25522079 1629.9252536 371.97065048 1630.36577606 372.70775986 C1630.77108551 373.41163714 1631.17639496 374.11551443 1631.59398651 374.84072133 C1633.14336652 377.42926145 1633.14336652 377.42926145 1635.1634903 379.84020818 C1643.04416824 390.41328413 1642.28991336 401.12594911 1642.17436981 413.87870884 C1642.18200106 416.28658893 1642.19314014 418.69446 1642.20745808 421.10230961 C1642.23057383 426.34309169 1642.22894341 431.58326195 1642.2053901 436.82401685 C1642.17029176 444.66932552 1642.18166066 452.51410737 1642.20192125 460.3594441 C1642.23511877 473.73147464 1642.23055653 487.10325299 1642.20538902 500.4752903 C1642.18004508 514.02341985 1642.17218407 527.5713927 1642.18563271 541.11954117 C1642.18647218 541.97566117 1642.18731166 542.83178116 1642.18817658 543.71384419 C1642.19253767 548.07930254 1642.197183 552.44476055 1642.2019287 556.8102185 C1642.23568623 588.39760722 1642.23080154 619.98489512 1642.20540619 651.57228661 C1642.18037124 682.85243595 1642.17188532 714.13251853 1642.18556976 745.41267586 C1642.18598728 746.38423657 1642.18640479 747.35579729 1642.18683495 748.35679923 C1642.19065709 757.23055363 1642.19468307 766.10430793 1642.19895363 774.97806213 C1642.2095671 797.03688992 1642.21762409 819.09571826 1642.22394562 841.15454769 C1642.22423553 842.15904078 1642.22452545 843.16353387 1642.22482415 844.19846614 C1642.23870249 893.05728307 1642.22312567 941.9160847 1642.20513153 990.77489853 C1642.19890381 1007.72928483 1642.19280634 1024.68367117 1642.18724823 1041.63805771 C1642.18690338 1042.68957524 1642.18655854 1043.74109278 1642.18620324 1044.82447448 C1642.17034973 1093.71002442 1642.1754253 1142.59556567 1642.18589718 1191.48111624 C1642.18657667 1194.6549368 1642.18724714 1197.82875736 1642.18791577 1201.00257792 C1642.19236126 1222.03571303 1642.19716743 1243.06884805 1642.2022151 1264.10198302 C1642.21225547 1305.9524373 1642.22017668 1347.80289189 1642.22664195 1389.65334687 C1642.22694986 1391.64635924 1642.22725924 1393.63937162 1642.22757012 1395.63238399 C1642.24155211 1485.34932611 1642.23088225 1575.0662592 1642.20952606 1664.78319931 C1642.20932626 1665.62324573 1642.20912645 1666.46329216 1642.20892059 1667.32879453 C1642.19890866 1709.34183549 1642.18748975 1751.35487599 1642.17436981 1793.36791611 C1641.32770406 1793.31464854 1640.48103831 1793.26138098 1639.60871603 1793.20649924 C1551.61723954 1787.67063417 1463.62566396 1782.1363353 1363.197258 1775.83657455 C1361.80801394 1775.74943304 1360.41876989 1775.66229152 1359.02952584 1775.57515 C1329.87042878 1773.74613072 1300.71130281 1771.9175727 1271.5521434 1770.08954768 C1256.90504202 1769.17130166 1242.25794619 1768.25296697 1227.61085562 1767.33454848 C1225.40136496 1767.196007 1223.19187415 1767.05746806 1220.98238332 1766.91892922 C1186.94991072 1764.78501282 1152.91755893 1762.64919243 1118.88555145 1760.50786972 C1118.15355247 1760.46181176 1117.42155348 1760.4157538 1116.66737271 1760.36830015 C1104.86500385 1759.62567411 1093.06264502 1758.88288862 1081.26028753 1758.14008197 C1047.27554004 1756.00118154 1013.29072051 1753.86345575 979.30540848 1751.73354149 C978.25760282 1751.66787295 978.25760282 1751.66787295 977.18862938 1751.60087778 C961.85589497 1750.63995922 946.52312263 1749.67964739 931.19031423 1748.71991042 C925.0213777 1748.33376322 918.85244664 1747.94752864 912.68351746 1747.56126404 C912.00834512 1747.51899056 911.33317279 1747.47671707 910.63754069 1747.43316258 C888.86535009 1746.06993167 867.09361471 1744.69958154 845.32210551 1743.32551462 C822.79080941 1741.90352872 800.25902979 1740.48942048 777.72665909 1739.08455609 C764.72515237 1738.27367899 751.72407725 1737.45649229 738.72352543 1736.63044386 C730.05275603 1736.08011984 721.38150821 1735.53784327 712.70981587 1735.0022599 C707.76010005 1734.69631847 702.81068236 1734.38673886 697.86181167 1734.06739406 C693.36675784 1733.77740229 688.87119471 1733.49758258 684.37498371 1733.22613953 C682.75182626 1733.12630973 681.12889866 1733.0226573 679.50624959 1732.91487929 C677.31442139 1732.76983549 675.1221942 1732.63847389 672.92930436 1732.5106529 C671.71203157 1732.43422239 670.49475878 1732.35779189 669.24059893 1732.27904531 C663.69550936 1732.43976276 660.71058113 1735.42536544 656.48686981 1738.80541611 C595.32473319 1786.51153407 514.13108624 1798.82801459 438.68608856 1789.72729111 C395.2678651 1784.01575867 342.61069191 1768.93719831 310.66618045 1736.85313826 C307.48599423 1733.76097186 305.81003151 1732.45858327 301.30096316 1731.81543547 C299.86154344 1731.87744517 298.42335209 1731.97433688 296.98804092 1732.09946156 C296.1858407 1732.14345455 295.38364047 1732.18744754 294.55713114 1732.23277365 C291.85925021 1732.38860906 289.16675609 1732.59018563 286.4719162 1732.79151535 C284.51059616 1732.91434314 282.54909642 1733.0343286 280.58744407 1733.15172964 C275.15716822 1733.48491454 269.73025907 1733.85819804 264.30303204 1734.23743287 C258.3760788 1734.64426573 252.4467562 1735.01326942 246.5176239 1735.38673592 C236.05536456 1736.05071327 225.59478668 1736.73766855 215.13500977 1737.43943214 C198.7408695 1738.53892353 182.34409536 1739.59516373 165.94661003 1740.64342871 C159.15310697 1741.07787965 152.35968179 1741.5135471 145.56625748 1741.94922733 C144.42294497 1742.02253031 144.42294497 1742.02253031 143.25653525 1742.09731416 C131.31756086 1742.86293659 119.37906217 1743.63572242 107.44077682 1744.41200924 C58.77331215 1747.57551602 10.10009066 1750.63827371 -38.57722531 1753.64624506 C-41.40310706 1753.82087486 -44.22898596 1753.99555052 -47.05486405 1754.17023948 C-64.27255507 1755.23456817 -81.49029601 1756.29808748 -98.70810747 1757.36046612 C-125.99635568 1759.04429595 -153.28423266 1760.73404084 -180.57184601 1762.42812729 C-182.02982753 1762.5186403 -182.02982753 1762.5186403 -183.51726323 1762.61098186 C-194.35383671 1763.28373828 -205.19040022 1763.9566553 -216.02695942 1764.62964177 C-227.89154325 1765.36646677 -239.75614779 1766.10295807 -251.62075806 1766.83935738 C-252.60210707 1766.90026682 -253.58345608 1766.96117625 -254.59454294 1767.02393143 C-258.56541763 1767.27039096 -262.53629243 1767.51684868 -266.50716745 1767.76330299 C-273.47422085 1768.19571688 -280.4412727 1768.62815586 -287.40832376 1769.06060755 C-315.94014568 1770.83159691 -344.47199357 1772.60216747 -373.00385284 1774.37255478 C-409.07043668 1776.6104692 -445.13700683 1778.848604 -481.20355439 1781.08710295 C-485.03253823 1781.32475132 -488.8615221 1781.5623992 -492.69050598 1781.80004692 C-493.63220473 1781.85849411 -494.57390348 1781.91694131 -495.54413856 1781.97715962 C-509.64680807 1782.85244799 -523.74948786 1783.72757075 -537.85217285 1784.60260963 C-553.72526869 1785.58749944 -569.59834928 1786.57263451 -585.47140959 1787.5580967 C-594.3122727 1788.10696556 -603.15314737 1788.65564726 -611.99403913 1789.20405437 C-617.89709848 1789.57024482 -623.80014217 1789.93668699 -629.70317336 1790.30333118 C-633.0578435 1790.5116868 -636.41252235 1790.71989929 -639.7672157 1790.92788111 C-643.38838526 1791.15240124 -647.0095281 1791.37734796 -650.63066483 1791.60239697 C-651.65470604 1791.66578759 -652.67874725 1791.72917822 -653.73382002 1791.79448977 C-661.76610888 1792.29438923 -669.79595203 1792.82790562 -677.82563019 1793.36791611 C-677.91050364 1750.65446387 -677.99061325 1707.94100331 -678.06708527 1665.22753525 C-678.06858229 1664.391606 -678.0700793 1663.55567674 -678.07162169 1662.6944163 C-678.23198963 1573.07328312 -678.36149364 1483.45216803 -678.42882538 1393.83091354 C-678.43032986 1391.83879089 -678.43183437 1389.84666823 -678.4333389 1387.85454557 C-678.46482987 1346.0336911 -678.49199244 1304.21283473 -678.51415902 1262.39197429 C-678.52529967 1241.38204338 -678.5372715 1220.37211301 -678.55002945 1199.36218302 C-678.55194904 1196.19303646 -678.55384489 1193.02388988 -678.55573975 1189.8547433 C-678.58510574 1141.08998922 -678.63223045 1092.32533236 -678.73114777 1043.56066513 C-678.73327208 1042.51324227 -678.73539639 1041.46581941 -678.73758508 1040.38665647 C-678.77194093 1023.50053052 -678.80779564 1006.61440775 -678.84384945 989.72828535 C-678.947751 941.05435237 -679.04045605 892.38051248 -679.06002331 843.70646191 C-679.06063576 842.20307194 -679.06063576 842.20307194 -679.06126059 840.66931047 C-679.07002798 818.66016343 -679.07310304 796.6510194 -679.07079831 774.64187085 C-679.06997095 765.78432678 -679.06996196 756.92678275 -679.0702343 748.06923866 C-679.07024436 747.09985674 -679.07025442 746.13047482 -679.07026478 745.13171769 C-679.07099446 713.96730139 -679.13817498 682.80346866 -679.24067399 651.63923403 C-679.34373312 620.21131388 -679.38067151 588.78405131 -679.32743564 557.35598615 C-679.32007257 552.99951041 -679.313457 548.64303383 -679.30729294 544.28655624 C-679.3060577 543.43266459 -679.30482247 542.57877293 -679.3035498 541.69900577 C-679.28602452 528.25165719 -679.3386106 514.80556204 -679.4214397 501.35849599 C-679.50168994 488.09083823 -679.50541533 474.82490098 -679.43127872 461.55719124 C-679.3937402 454.47693819 -679.38762264 447.40060284 -679.48013184 440.32074595 C-679.89572782 406.91746584 -676.62972117 382.3093012 -658.56420358 353.81508117 C-654.23550135 346.92247023 -650.59160704 339.64801907 -646.87762342 332.41219768 C-645.34625419 329.43637065 -643.78508664 326.47672445 -642.22406769 323.51635361 C-641.2159652 321.59202633 -640.20814061 319.66755343 -639.20063019 317.74291611 C-638.40979034 316.23858017 -638.40979034 316.23858017 -637.60297394 314.70385361 C-637.10668488 313.75510361 -636.61039581 312.80635361 -636.09906769 311.82885361 C-635.65998077 310.99144638 -635.22089386 310.15403915 -634.76850128 309.29125595 C-633.75226705 307.57526746 -633.75226705 307.57526746 -633.82563019 306.36791611 C-648.48652399 306.15050591 -663.05312947 306.83559427 -677.68891144 307.64525986 C-680.13983722 307.77770455 -682.59078057 307.9098245 -685.04174042 308.04163742 C-690.13906613 308.31683423 -695.23619453 308.59537062 -700.33319855 308.87646103 C-706.86508384 309.23648701 -713.39735568 309.58885418 -719.92978382 309.93887615 C-724.9733188 310.20980999 -730.0166546 310.48431119 -735.05993462 310.75994682 C-737.47003684 310.89131984 -739.88019437 311.02168225 -742.29040718 311.15101051 C-745.64521012 311.33164416 -748.99972087 311.51697571 -752.35419464 311.70360947 C-753.84170982 311.7823732 -753.84170982 311.7823732 -755.35927582 311.86272812 C-756.73152313 311.9405175 -756.73152313 311.9405175 -758.13149261 312.01987839 C-759.31733932 312.08486479 -759.31733932 312.08486479 -760.52714252 312.15116405 C-762.98265398 312.38272377 -765.40712055 312.88421418 -767.82563019 313.36791611 C-767.82563019 834.43791611 -767.82563019 1355.50791611 -767.82563019 1892.36791611 C-757.23298971 1892.39122584 -757.23298971 1892.39122584 -746.7329241 1891.88701391 C-745.6556143 1891.80889084 -745.6556143 1891.80889084 -744.55654066 1891.72918952 C-742.18650772 1891.55617264 -739.81703848 1891.37641864 -737.44751167 1891.19661331 C-735.70933106 1891.06829831 -733.97111927 1890.94040504 -732.23287964 1890.81289202 C-727.46685149 1890.4620494 -722.70128492 1890.1052561 -717.93577327 1889.74747557 C-712.74710956 1889.35900038 -707.55803192 1888.97612805 -702.36900461 1888.59254599 C-693.27794836 1887.91975147 -684.18716084 1887.24341745 -675.09654045 1886.56476021 C-661.57835383 1885.55558803 -648.05976077 1884.55194393 -634.5410754 1883.54947783 C-612.49378286 1881.91444982 -590.4467824 1880.27552619 -568.39996482 1878.63410923 C-545.1721555 1876.90476875 -521.94417262 1875.17778946 -498.71593094 1873.45426559 C-498.01565607 1873.40230508 -497.3153812 1873.35034456 -496.59388588 1873.29680948 C-488.76889834 1872.71620081 -480.94390488 1872.13567188 -473.11890893 1871.55517668 C-458.64665773 1870.48155472 -444.17443005 1869.40761567 -429.70220757 1868.33360672 C-428.97813633 1868.2798726 -428.2540651 1868.22613849 -427.50805232 1868.17077606 C-393.05639303 1865.6140665 -358.60494432 1863.05452458 -324.15354868 1860.49426519 C-321.86802336 1860.3244163 -319.58249792 1860.15456903 -317.29697245 1859.9847221 C-285.92044344 1857.65299567 -254.54394282 1855.32088742 -223.16746117 1852.98852371 C-207.88778574 1851.85271248 -192.60810719 1850.71694309 -177.32842541 1849.58121725 C-175.04400105 1849.41141754 -172.7595768 1849.24161633 -170.47515257 1849.07181498 C-136.05777454 1846.51358086 -101.64032582 1843.95630336 -67.22263908 1841.40222549 C-66.49907387 1841.34853047 -65.77550866 1841.29483545 -65.03001723 1841.2395133 C-50.57288107 1840.16666956 -36.11573356 1839.09397887 -21.65856292 1838.0215998 C-13.84002446 1837.4416491 -6.02149038 1836.86163935 1.79703903 1836.28156662 C2.49649489 1836.22967323 3.19595074 1836.17777983 3.91660223 1836.12431391 C26.43652458 1834.45349941 48.95615052 1832.77872745 71.4756127 1831.10172299 C94.78862494 1829.36562508 118.10190642 1827.63320047 141.41551922 1825.90518177 C154.85449882 1824.90894374 168.29323732 1823.90957584 181.73165396 1822.90577206 C190.70792961 1822.23557663 199.68449683 1821.56938834 208.66131134 1820.90644983 C213.77599125 1820.52861217 218.89052467 1820.14902602 224.00470857 1819.76452798 C228.66252703 1819.41437306 233.32069822 1819.06937061 237.97919564 1818.72837108 C239.64872805 1818.60527177 241.31812667 1818.48033947 242.98736277 1818.35328538 C250.78019964 1817.7610802 258.56737373 1817.25234071 266.38365424 1817.13406515 C267.54388802 1817.11481469 268.7041218 1817.09556422 269.89951418 1817.07573041 C275.88968458 1817.61017904 280.573825 1820.4920161 285.67436981 1823.49291611 C288.03416844 1824.79292195 290.39671918 1826.08606985 292.76421356 1827.37182236 C293.36970535 1827.70421417 293.97519714 1828.03660599 294.59903717 1828.37907028 C301.32980932 1832.05299199 308.24533884 1835.28712283 315.23686981 1838.43041611 C315.87505646 1838.7175145 316.5132431 1839.00461288 317.17076874 1839.30041122 C360.21322342 1858.55599772 405.34840785 1873.1183929 452.17436981 1879.36791611 C452.86226593 1879.45974167 453.55016205 1879.55156723 454.2589035 1879.64617538 C467.81144449 1881.40106392 481.26926922 1881.76913873 494.92436981 1881.74291611 C496.53194153 1881.74210037 496.53194153 1881.74210037 498.17198944 1881.74126816 C516.15985972 1881.69948022 533.46617921 1880.68248707 551.17436981 1877.36791611 C552.30810028 1877.15892685 553.44183075 1876.94993759 554.60991669 1876.73461533 C600.88476062 1867.92444467 644.4412662 1849.06190494 685.56499481 1826.52416611 C686.51825653 1826.00467392 687.47151825 1825.48518173 688.45366669 1824.94994736 C691.17786348 1823.42372068 691.17786348 1823.42372068 693.59819794 1821.62963486 C698.45901751 1818.21305879 701.92393263 1817.03311409 707.90728885 1817.13260031 C708.8856026 1817.14744695 708.8856026 1817.14744695 709.88368026 1817.16259352 C717.82306826 1817.32790285 725.73562263 1817.93068919 733.65079021 1818.5392189 C735.37515022 1818.66760051 737.09954684 1818.79549105 738.82397601 1818.92294019 C743.5423587 1819.27308082 748.26019613 1819.63013361 752.97797113 1819.98835664 C758.1183098 1820.37741085 763.25913548 1820.75993034 768.39990169 1821.14328623 C777.40304174 1821.81556041 786.40586464 1822.49195668 795.40849113 1823.17107201 C808.79564043 1824.18091001 822.18326712 1825.18430614 835.57100147 1826.18635438 C858.09600735 1827.87247599 880.62062993 1829.56366126 903.14504814 1831.25761032 C925.45274952 1832.93523356 947.76065251 1834.6101399 970.06881905 1836.28156662 C971.10906336 1836.3595074 971.10906336 1836.3595074 972.17032271 1836.43902273 C979.91956862 1837.01963256 987.6688207 1837.60016008 995.41807518 1838.18065554 C1009.74955716 1839.25422905 1024.08101114 1840.32817615 1038.41245747 1841.40222549 C1039.1294584 1841.45595961 1039.84645934 1841.50969373 1040.58518758 1841.56505615 C1074.69450606 1844.12132775 1108.80356233 1846.68109078 1142.91256541 1849.24156703 C1145.17518233 1849.41141581 1147.43779937 1849.58126314 1149.70041643 1849.75111011 C1163.317516 1850.77330081 1176.93461325 1851.79552247 1190.55170841 1852.81777188 C1223.13509626 1855.26383582 1255.71851916 1857.70943265 1288.30197318 1860.15461497 C1290.56464613 1860.32441459 1292.82731895 1860.49421582 1295.08999176 1860.66401724 C1329.17544422 1863.22193668 1363.26096214 1865.77898029 1397.34666157 1868.33360672 C1398.06309381 1868.38730174 1398.77952605 1868.44099677 1399.51766836 1868.49631891 C1413.83155123 1869.56911022 1428.14544211 1870.64179453 1442.45935147 1871.71423241 C1450.20002784 1872.29418701 1457.9407001 1872.87419638 1465.68136787 1873.45426559 C1466.72010428 1873.53210569 1466.72010428 1873.53210569 1467.77982526 1873.61151831 C1490.77211939 1875.33453486 1513.76413537 1877.06123471 1536.75601921 1878.78971688 C1559.1482332 1880.47310292 1581.54067356 1882.15344959 1603.93335184 1883.83065045 C1617.24183833 1884.82756075 1630.55012795 1885.82701905 1643.8581538 1886.83006016 C1652.74363007 1887.49952679 1661.62934424 1888.16576951 1670.51525961 1888.82938239 C1675.58043527 1889.20775354 1680.6454929 1889.58755158 1685.71026393 1889.97130424 C1690.31972515 1890.32053334 1694.92947676 1890.66562831 1699.53949222 1891.00746114 C1701.19483035 1891.13092849 1702.85005798 1891.25588911 1704.50515507 1891.38254683 C1706.75980898 1891.55486468 1709.01481429 1891.72158236 1711.26998252 1891.88701391 C1712.51634318 1891.98060229 1713.76270385 1892.07419066 1715.04683302 1892.17061505 C1720.41694917 1892.42731285 1725.79812194 1892.36791611 1731.17436981 1892.36791611 C1731.17436981 1367.66791611 1731.17436981 842.96791611 1731.17436981 302.36791611 C1727.39283014 301.61160817 1724.08912769 301.16008791 1720.2783432 300.94395065 C1719.09782379 300.87526276 1717.91730438 300.80657486 1716.70101166 300.73580551 C1715.41459778 300.66459488 1714.1281839 300.59338425 1712.80278778 300.52001572 C1711.42760764 300.44135479 1710.05244527 300.36238258 1708.6772995 300.28312302 C1704.95041821 300.06922231 1701.22330056 299.85973547 1697.49612188 299.65108943 C1693.59495926 299.43199808 1689.69401994 299.20899933 1685.79305267 298.98646164 C1679.24467189 298.61345188 1672.69614686 298.24307056 1666.14751434 297.8745079 C1657.73912981 297.40126782 1649.33098028 296.92398103 1640.92290306 296.44531536 C1633.69505758 296.03384165 1626.46712496 295.62390691 1619.23916864 295.21438527 C1617.68743182 295.12644632 1616.13569786 295.03845677 1614.58396673 294.95041728 C1610.1621768 294.69954999 1605.74034245 294.44949835 1601.31842804 294.20083427 C1599.33781111 294.08927477 1597.3572403 293.97689718 1595.37667084 293.86449814 C1594.20179108 293.79863007 1593.02691132 293.73276199 1591.81642914 293.66489792 C1590.79328047 293.60720199 1589.7701318 293.54950605 1588.71597862 293.49006176 C1586.87045702 293.40136894 1585.02202141 293.36791611 1583.17436981 293.36791611 Z M-98.82563019 1449.36791611 C-101.22762457 1449.54694726 -103.62964359 1449.72564819 -106.03168488 1449.90404892 C-198.14297768 1456.82363671 -289.61807942 1469.92166867 -380.3650589 1487.03191757 C-388.08377566 1488.48674289 -395.80682984 1489.91118393 -403.53812599 1491.2976675 C-409.08499637 1492.29483111 -414.62524383 1493.32440801 -420.16156578 1494.37854862 C-423.41621964 1494.99738586 -426.67243565 1495.59780699 -429.93543243 1496.17129135 C-433.51704884 1496.80383109 -437.08463001 1497.48909599 -440.65375519 1498.18822861 C-441.70364624 1498.36098816 -442.75353729 1498.53374771 -443.83524323 1498.7117424 C-447.88951354 1499.55247429 -450.80308596 1500.23430207 -453.63062286 1503.36896896 C-455.23831501 1505.96787407 -456.54404026 1508.59416274 -457.82563019 1511.36791611 C-458.82414094 1513.29911266 -459.82452844 1515.2293398 -460.82660675 1517.15868759 C-461.87716829 1519.26680039 -462.92353739 1521.37700637 -463.96625519 1523.48900986 C-464.53334198 1524.62838501 -465.10042877 1525.76776016 -465.68470001 1526.94166183 C-467.18294748 1529.95285631 -468.67792791 1532.96562033 -470.17090607 1535.97942734 C-472.82661273 1541.33939336 -475.48878959 1546.69614179 -478.15375519 1552.05150986 C-478.72992584 1553.20944046 -479.3060965 1554.36737106 -479.89972687 1555.56039047 C-483.57181303 1562.91747974 -487.33920027 1570.21505916 -491.1987381 1577.47520065 C-496.25614459 1587.0141237 -501.02576646 1596.69765182 -505.82563019 1606.36791611 C-511.45372051 1617.70680487 -517.12531168 1629.00897916 -523.05854034 1640.19164658 C-528.155298 1649.82911547 -532.97883512 1659.60309944 -537.82563019 1669.36791611 C-543.95794812 1681.72267 -550.17262977 1694.01809849 -556.62934113 1706.20678329 C-559.30767546 1711.26674768 -561.9003706 1716.3673124 -564.45063019 1721.49291611 C-564.88246613 1722.35272079 -565.31430206 1723.21252548 -565.75922394 1724.09838486 C-566.16527863 1724.91178329 -566.57133331 1725.72518173 -566.98969269 1726.56322861 C-567.52263947 1727.63081406 -567.52263947 1727.63081406 -568.06635284 1728.71996689 C-568.89537365 1730.2168798 -568.89537365 1730.2168798 -568.82563019 1731.36791611 C-551.09616839 1730.74133723 -533.43587382 1729.41099899 -515.75621503 1727.99320553 C-511.58201955 1727.65930941 -507.40747785 1727.32979206 -503.2329812 1726.9996866 C-495.93648016 1726.42211213 -488.64019947 1725.84181846 -481.3440609 1725.25968361 C-470.4931478 1724.39393792 -459.64189612 1723.53249379 -448.79057369 1722.67189585 C-430.52201012 1721.22292988 -412.25372125 1719.77052823 -393.98558807 1718.31614685 C-375.88417232 1716.87505049 -357.78263367 1715.43551324 -339.68093109 1713.99802399 C-338.55254009 1713.90841556 -337.42414909 1713.81880713 -336.26156442 1713.7264833 C-330.52957612 1713.27129959 -324.79758562 1712.81614362 -319.06559426 1712.36099844 C-278.48976524 1709.13905122 -237.91420889 1705.91368214 -197.33881378 1702.68627548 C-158.02547123 1699.55926226 -118.7120105 1696.43374158 -79.39838409 1693.31029892 C-78.18840228 1693.214166 -76.97842047 1693.11803308 -75.73177255 1693.01898705 C-62.36872244 1691.95729624 -49.00566884 1690.89564939 -35.64261341 1689.83402562 C-11.99002532 1687.95495192 11.66254939 1686.07570976 35.31511688 1684.1963768 C36.46075196 1684.10534994 37.60638705 1684.01432308 38.78673834 1683.92053783 C72.62907776 1681.23157423 106.47134362 1678.54168651 140.3135359 1675.85087164 C143.54500008 1675.59393637 146.77646454 1675.3370047 150.00792909 1675.08007404 C169.13652039 1673.55917499 188.26510875 1672.03823891 207.39366672 1670.51692069 C214.62480751 1669.94182206 221.85595393 1669.36679421 229.08710434 1668.7918166 C233.18565442 1668.4659204 237.28420169 1668.13998913 241.38274044 1667.81395049 C242.13942107 1667.75376246 242.8961017 1667.69357443 243.67571205 1667.63156251 C245.1765231 1667.51217231 246.67733168 1667.39275092 248.1781377 1667.27329757 C251.80134584 1666.98500723 255.42461018 1666.69746482 259.04801068 1666.4116017 C265.9548869 1665.86613207 272.86100774 1665.31342559 279.76572412 1664.74117708 C283.20457738 1664.4567909 286.64375516 1664.17645025 290.08297349 1663.89651785 C291.71838358 1663.76236306 293.35364422 1663.62637077 294.98873051 1663.48832553 C321.36731188 1661.26304858 321.36731188 1661.26304858 325.34884223 1663.69742741 C327.17599983 1665.37591318 328.61728742 1667.13849472 330.11186981 1669.11791611 C331.28537832 1670.50857053 332.4652092 1671.89391155 333.65093231 1673.27416611 C334.23519989 1673.96768173 334.81946747 1674.66119736 335.42144012 1675.37572861 C362.92444941 1706.63263053 410.72489943 1722.87678679 450.17436981 1731.36791611 C450.83436981 1731.36791611 451.49436981 1731.36791611 452.17436981 1731.36791611 C447.88124313 1673.2626671 428.4091737 1612.41276862 392.17436981 1566.36791611 C391.41640106 1565.39854111 390.65843231 1564.42916611 389.87749481 1563.43041611 C384.28901013 1556.45471891 378.30132948 1549.86925036 372.17436981 1543.36791611 C371.48472137 1542.63572861 370.79507294 1541.90354111 370.08452606 1541.14916611 C364.83441672 1535.73801047 359.08107907 1531.04178512 353.17436981 1526.36791611 C352.208862 1525.58545517 351.24335419 1524.80299423 350.24858856 1523.99682236 C279.27991083 1467.63669074 180.02450744 1453.6400824 41.19390106 1446.16479111 C39.02786997 1446.15777001 36.86183909 1446.15068319 34.69580841 1446.14353561 C27.79282593 1446.12409229 20.8898769 1446.11909993 13.98686981 1446.11791611 C12.80990288 1446.11747425 11.63293594 1446.11703239 10.42030334 1446.11657715 C-26.09743427 1446.10938677 -62.40032422 1446.5632997 -98.82563019 1449.36791611 Z M599.17436981 1533.36791611 C598.63811981 1533.81393173 598.10186981 1534.25994736 597.54936981 1534.71947861 C586.54969907 1543.90223945 576.3230144 1553.40437307 567.46392059 1564.72777939 C566.54756331 1565.89326371 565.62319937 1567.05247234 564.69341278 1568.20727158 C556.00818774 1578.99492559 548.64817247 1590.12319464 542.17436981 1602.36791611 C541.74527313 1603.17680283 541.31617645 1603.98568954 540.87407684 1604.81908798 C520.72379376 1643.42584011 512.20041087 1688.02674333 513.17436981 1731.36791611 C559.28506819 1727.21938378 603.00020491 1705.26272157 636.92436981 1674.56713486 C637.70804501 1673.8774842 637.70804501 1673.8774842 638.50755203 1673.1739012 C640.33525918 1671.34217942 640.33525918 1671.34217942 641.67572987 1668.59842527 C644.05680534 1664.84775235 646.08601634 1662.24780991 650.17436981 1660.36791611 C658.86553557 1658.99489129 667.91971066 1660.58239128 676.59717117 1661.57815444 C680.21379971 1661.97909204 683.83683039 1662.30966674 687.45997989 1662.64554942 C692.82169584 1663.1478607 698.18087858 1663.66929851 703.5383244 1664.21529576 C713.21445835 1665.19985718 722.89630605 1666.0405812 732.59295273 1666.79468536 C733.31070559 1666.85062168 734.02845844 1666.90655801 734.76796139 1666.96418937 C737.69367401 1667.19179933 740.6194503 1667.41855816 743.54533864 1667.6438985 C751.17708849 1668.23204511 758.80660041 1668.84721573 766.4360545 1669.46432691 C769.63282563 1669.72281517 772.82966446 1669.9804608 776.02650334 1670.23810956 C778.4887779 1670.43655682 780.95104399 1670.63510879 783.41330957 1670.83366728 C791.27635569 1671.46761588 799.13951163 1672.10020035 807.00265407 1672.73295288 C823.04726213 1674.02411063 839.09178547 1675.31631803 855.13625717 1676.60916901 C871.02517761 1677.88948184 886.91413851 1679.16929088 902.80315018 1680.44847107 C904.30179757 1680.5691234 904.30179757 1680.5691234 905.83072067 1680.69221316 C910.90915287 1681.10106242 915.98758576 1681.50990305 921.06601892 1681.91874035 C956.86750974 1684.80094076 992.66891509 1687.68420165 1028.47026825 1690.56811142 C1062.98357207 1693.34826212 1097.49691341 1696.12794639 1132.01030731 1698.90697861 C1133.07227459 1698.99248883 1134.13424186 1699.07799906 1135.22838996 1699.1661005 C1146.96694686 1700.11129533 1158.70550486 1701.05647642 1170.44406343 1702.00165057 C1191.34862524 1703.6848604 1212.25318262 1705.36812525 1233.15773773 1707.0514183 C1234.17345103 1707.13320623 1235.18916432 1707.21499416 1236.2356568 1707.29926051 C1259.22844604 1709.15070287 1282.22122723 1711.00224507 1305.21398544 1712.85407257 C1306.17472331 1712.93144969 1307.13546118 1713.00882682 1308.12531231 1713.0885487 C1318.57321254 1713.9300175 1329.02110891 1714.77153412 1339.46899855 1715.61313426 C1343.15390975 1715.90995749 1346.8388213 1716.20677626 1350.52373314 1716.50359154 C1351.42572975 1716.57624664 1352.32772636 1716.64890175 1353.25705621 1716.72375852 C1365.57215901 1717.71570872 1377.88731104 1718.70704563 1390.20250343 1719.69788311 C1397.61014748 1720.29389312 1405.01777897 1720.89005918 1412.42540741 1721.48626328 C1413.60683852 1721.58134481 1413.60683852 1721.58134481 1414.81213693 1721.67834718 C1434.59183523 1723.27026968 1454.3709538 1724.86896689 1474.1490422 1726.48078988 C1480.45793582 1726.9946494 1486.76696232 1727.50687529 1493.07598915 1728.01909632 C1498.53236045 1728.46235991 1503.98846667 1728.90870122 1509.44435471 1729.35787207 C1512.61509042 1729.61822481 1515.78605482 1729.87569751 1518.95709601 1730.13230011 C1520.36373914 1730.24675018 1521.77028267 1730.3624334 1523.1767064 1730.47954872 C1530.19971566 1731.06398624 1537.12607894 1731.49681021 1544.17436981 1731.36791611 C1543.77089325 1730.56096298 1543.36741669 1729.75400986 1542.95171356 1728.92260361 C1542.66828094 1728.35565781 1542.38484833 1727.78871201 1542.09282684 1727.20458603 C1541.41828051 1725.85566123 1540.7434605 1724.50687327 1540.06841278 1723.15819931 C1537.90191726 1718.82841179 1535.73993679 1714.49642566 1533.583992 1710.16137314 C1532.31085314 1707.60225802 1531.03590648 1705.04404528 1529.76082611 1702.48589706 C1529.13463547 1701.22858655 1528.50917106 1699.97091399 1527.88454437 1698.71282578 C1523.71152112 1690.30916384 1519.41237429 1681.98042557 1515.02748871 1673.6853447 C1510.84295937 1665.7619817 1506.75204623 1657.79207272 1502.67430878 1649.81335068 C1500.49729168 1645.55414041 1498.31639737 1641.29691676 1496.13530731 1637.03979111 C1495.70497192 1636.19978561 1495.27463654 1635.35978012 1494.83126068 1634.49431992 C1491.25863009 1627.5243752 1487.66122785 1620.56762547 1484.04936981 1613.61791611 C1478.75140315 1603.42342704 1473.48751823 1593.21182512 1468.23686981 1582.99291611 C1462.23048035 1571.29880749 1462.23048035 1571.29880749 1456.20346832 1559.61532211 C1455.57511655 1558.39895166 1454.94848105 1557.18169299 1454.32361603 1555.96352768 C1452.79477241 1552.98937913 1451.23689881 1550.03700044 1449.61211395 1547.11449814 C1446.56171124 1541.55329411 1444.03717412 1536.37048221 1442.44857025 1530.23106003 C1439.94513236 1520.64259296 1436.69369147 1511.17596365 1428.17436981 1505.36791611 C1412.36906864 1497.96692612 1393.21655386 1496.43457678 1376.0613575 1493.9833765 C1366.96664365 1492.68162426 1357.95993222 1491.08768904 1348.94780731 1489.30541611 C1347.61906488 1489.04373211 1346.29031428 1488.78208961 1344.96155548 1488.52048874 C1342.97504054 1488.1290915 1340.98856871 1487.73748607 1339.00227833 1487.34495068 C1233.98508536 1466.64857124 1127.07013889 1452.94248931 973.38921356 1446.16479111 C971.83878955 1446.16055004 971.83878955 1446.16055004 970.25704384 1446.1562233 C964.76927837 1446.14138954 959.28153803 1446.13206506 953.79375458 1446.12768173 C949.38025723 1446.12333631 944.96695969 1446.10957466 940.5535202 1446.08666611 C853.9903476 1445.6469428 764.84698623 1453.13530287 599.17436981 1533.36791611 Z " fill="#FFFFFF" transform="translate(1416.8256301879883,920.6320838928223)"/>
</svg>
